<?xml version="1.0" encoding="utf-8"?>
<!-- Generator: Adobe Illustrator 23.0.1, SVG Export Plug-In . SVG Version: 6.00 Build 0)  -->
<svg version="1.1" id="Layer_1" xmlns="http://www.w3.org/2000/svg" xmlns:xlink="http://www.w3.org/1999/xlink" x="0px" y="0px"
	 viewBox="0 0 126.77 127.44" style="enable-background:new 0 0 126.77 127.44;" xml:space="preserve">
<style type="text/css">
	.st0{fill-rule:evenodd;clip-rule:evenodd;fill:#81CECB;}
	.st1{fill:#795AA6;}
	.st2{fill:#FFDD6F;}
	.st3{fill:#F48058;}
	.st4{fill:#81CECB;}
</style>
<path class="st0" d="M111.94,22.64c0,0.06,0,0.12,0,0.18c0.29,0.2,0.56,0.59,0.9,0.86c0.17,0.07,0.33,0.15,0.5,0.23
	c0.19,0.18,0.23,0.59,0.31,0.67c0.22,0.21,0.6,0.14,0.77,0.4c0.57,0.91,1.21,1.76,1.8,2.57c0.01,0.12,0.03,0.24,0.05,0.36
	c0.09,0.04,0.18,0.09,0.27,0.13c0.12,0.16,0.16,0.55,0.22,0.63c0.08,0.03,0.15,0.06,0.22,0.09c0.18,0.22,0.23,0.61,0.45,0.94
	c0.11,0.17,0.29,0.22,0.45,0.41c0.19,0.22,0.18,0.86,0.22,0.94c0.12,0.21,0.38,0.56,0.54,0.77c-0.02,0.09-0.03,0.18-0.04,0.27
	c0.28,0.53,0.73,0.93,1.04,1.44c0,0.1-0.01,0.35,0.09,0.5c0.14,0.21,0.42,0.35,0.58,0.72c0.35,0.82,0.77,1.86,1.17,2.75
	c0.1,0.22,0.02,0.45,0.09,0.59c0.07,0.13,0.34,0.29,0.41,0.45c0.09,0.24-0.09,0.23-0.04,0.45l0.67,1.58
	c0.09,0.1,0.29,0.15,0.36,0.27c0.11,0.19,0.28,0.75,0.23,0.99c-0.04,0.14-0.09,0.27-0.13,0.41c0.07,0.34,0.38,0.71,0.45,1.08
	c0.09,0.47,0.09,1.08,0.22,1.35c0.04,0.03,0.09,0.06,0.14,0.09c0.02,0.58,0.33,1.31,0.54,1.8c0.23,0.55-0.03,1.42,0.31,2.25
	c0.55,1.35,0.91,3,0.9,4.77c0,0,0.26,0.65,0.27,0.77c0.03,0.23-0.02,0.42-0.13,0.58c0.18,0.3,0.42,0.77,0.27,1.04
	c-0.07,0.09-0.05-0.03-0.09,0.09c0.23,0.36,0.09,0.89-0.04,1.17c0.08,0.15,0.16,0.21,0.18,0.45c-0.03,0-0.06,0-0.09,0
	c-0.04-0.1-0.02-0.07-0.09-0.14c0,0.1,0,0.21,0,0.31c0.28,0.21,0.33,2.09,0.23,2.29c0.17,0.03,0.1-0.05,0.13,0.14
	c-0.03,0.02-0.06,0.03-0.09,0.04c0.18,0.08,0.15,0.24,0.13,0.5c0,0.07,0,0.15,0,0.23c-0.04,0.01-0.09,0.03-0.13,0.04
	c0.01,0,0.03,0,0.04,0c0.09,0.11,0.1,0.07,0.13,0.27c-0.15,0.39,0.15,2.16,0.27,2.7c-0.19,0.01-0.09-0.07-0.18,0.04
	c0.07,0.05,0.43,2.94,0.31,3.47c-0.17,0.75-0.01,1.7-0.22,2.56c0,0.45,0,0.9,0,1.35c-0.16,0.47-0.42,1.11-0.59,1.62
	c-0.09,0.75-0.18,1.5-0.27,2.25c-0.08,0.37-0.28,0.71-0.31,1.12c0.1,0,0.04-0.04,0.09,0.05c-0.29,0.67-0.21,1.65-0.32,2.2
	c-0.09,0.44,0.06,0.92-0.27,1.12c0.14,0.37-0.07,1.42-0.36,1.62c0.07,0.11,0.09,0.11,0.13,0.27c-0.67,0.68-0.75,2.29-1.48,2.93
	c0.18,0.24-0.08,1.14-0.23,1.57c-0.24,0.69-0.58,1.17-0.9,1.8c-0.23,0.45-0.2,1.04-0.36,1.48c-0.04-0.01-0.09-0.03-0.14-0.04
	c-0.06,0.42-0.28,0.24-0.49,0.54c-0.39,0.55-0.64,1.3-0.99,1.84c-0.28,0.44-0.25,0.95-0.5,1.44c-0.44,0.89-0.98,1.79-1.58,2.52
	c-0.03,0.16-0.06,0.33-0.09,0.49c-0.06,0.13-0.79,1.21-0.9,1.31c-0.07,0.05-0.09-0.03-0.18,0.09c0.04,0.06,0.11,0.08,0.04,0.13
	c-0.54,0.94-1.7,2.53-2.29,3.15c0.02,0.24-0.3,0.38-0.45,0.58c0.14,0.4-0.7,0.86-0.81,1.21c0,0.02,0,0.03,0,0.04
	c-0.04,0.02-0.09,0.03-0.13,0.04c0.05,0.02,0.14-0.02,0.09,0.09c-0.02,0-0.03,0-0.04,0c-0.1,0.35-0.43,0.46-0.59,0.77
	c-0.09-0.05-0.09-0.06-0.23-0.09c0.01,0.51-0.4,0.42-0.45,0.85c-0.26,0.02-0.32,0.09-0.5,0.18c0.06,0.08,0.09,0.08,0.14,0.18
	c-0.44,0.36-0.75,1.01-1.12,1.44c-0.42,0.48-1,0.84-1.44,1.3c-0.43,0.45-0.65,1.08-1.08,1.53c-0.11,0.12-0.46,0.23-0.54,0.36
	c-0.09,0.13-0.09,0.45-0.18,0.58c-0.2,0.3-0.85,0.37-1.03,0.54c-0.1,0.1-0.11,0.26-0.23,0.36c0,0.03,0,0.06,0,0.09
	c-0.22,0.14-0.44,0.07-0.63,0.22c-0.35,0.28-0.49,0.69-0.95,0.9c0-0.06,0-0.12,0-0.18c0,0.03,0,0.06,0,0.09
	c-0.09,0.07-0.09,0.12-0.13,0.23c-0.12,0-0.94,0.59-1.04,0.67c0.1,0.25-0.34,0.44-0.5,0.58c-0.24,0.23-0.36,0.58-0.67,0.76
	c-0.22,0.13-0.33,0.01-0.54,0.09c-0.17,0.07-0.33,0.23-0.5,0.32c0.03,0.03,0.06,0.06,0.09,0.09c-0.01,0-0.03,0-0.04,0
	c-0.3,0.25-0.72,0.45-1.21,0.63c0.06,0.11,0.08,0.02,0.04,0.14c-0.27,0.13-0.55,0.14-0.76,0.27c0.04,0.03,0.09,0.06,0.13,0.09
	c-0.07,0.08-0.1,0.15-0.13,0.18c-0.2,0.15-0.47,0.38-0.72,0.45c-0.04,0-0.09,0-0.13,0c-0.02,0.06-0.03,0.12-0.05,0.18
	c-0.2,0.12-0.42,0.21-0.58,0.27c0.03,0.03,0.06,0.06,0.09,0.09c-0.01,0-0.03,0-0.04,0c-0.03,0.03-0.06,0.06-0.09,0.09
	c-0.13-0.01-0.04-0.1-0.13,0c0,0,0,0.03,0.04,0.09c-0.02,0-0.03,0-0.04,0c-0.26,0.09-0.48,0.42-0.68,0.58
	c-0.15,0.13-0.55,0.05-0.67,0.23c-0.02,0.07-0.03,0.15-0.04,0.22c-0.33,0-0.54,0.22-0.86,0.13c-0.4,1.26-2.42,1.83-3.83,2.29
	c-1.01,0.33-2.32,1.03-3.24,1.39c-1.02,0.4-1.78,0.43-2.75,0.81c-0.22,0.17-0.45,0.33-0.67,0.5c-0.48,0.3-1.12,0.43-1.67,0.5
	c0-0.03,0-0.06,0-0.09c-0.27,0.22-0.77,0.09-1.17,0.22c-0.61,0.21-1.06,0.22-1.89,0.45c-1.13,0.31-2.46,0.74-3.74,1.08
	c-0.2,0.05-0.71-0.06-0.99,0.05c-0.3,0.11-0.4,0.35-0.81,0.5c-0.38,0.14-2.15,0.32-2.21,0.31c-0.35-0.04-2.67,0.64-2.97,0.41
	c-0.1-0.07,0.03-0.05-0.09-0.09c-0.24,0.21-0.83,0.08-1.21,0.13c-0.75,0.1-1.74-0.05-2.43-0.04c-0.12,0.04-0.24,0.09-0.36,0.13
	c-0.15-0.03-0.56-0.17-0.94-0.04c-0.72,0.22-1.84,0.23-2.57,0.32l-0.9-0.09c-0.23,0.24-0.68,0.01-1.21,0.13
	c-1.01,0.24-3.01-0.04-3.83-0.22c-0.43,0-0.87,0-1.3,0c-0.3-0.09-0.6-0.18-0.9-0.27c-1.2-0.33-2.28-0.16-3.29-0.63
	c-0.72,0.06-1.44-0.15-2.16-0.32c-0.65-0.15-1.24,0.13-1.84-0.22c-0.03-0.05-0.06-0.09-0.09-0.14c-0.08,0.08-0.54,0.05-0.76-0.04
	c-0.29-0.12-0.68-0.44-0.99-0.54c-0.39-0.13-0.71-0.03-0.99-0.23c-0.02-0.03-0.03-0.06-0.05-0.09c-0.4,0.17-2.5-0.62-2.92-0.85
	c-0.4-0.23-1.36-0.32-1.93-0.63c-0.29-0.16-0.33-0.57-0.58-0.72c-1.11-0.68-2.28-1.11-3.38-1.8c-0.04-0.17-1.37-1.02-1.67-1.21
	c-0.12-0.08-0.35-0.05-0.4-0.09c-2.01-1.54-4.58-2.56-6.62-4.19c-0.68-0.55-1.38-1.09-2.02-1.67c-0.07-0.06-0.59-0.52-0.63-0.41
	c-1.21-1.7-2.96-3.12-4.59-4.41c-0.66-0.52-1.14-1.28-1.75-1.84c-0.23-0.1-0.45-0.21-0.67-0.32c-0.38-0.33-0.92-1.14-1.22-1.57
	c-0.18-0.26-0.56-0.39-0.81-0.58c-0.2-0.16-0.25-0.42-0.41-0.63c-0.17-0.12-0.33-0.24-0.5-0.36c-0.6-0.73-1.22-1.54-1.66-2.29
	c-0.09-0.24-0.18-0.48-0.27-0.72c-0.21-0.29-0.42-0.57-0.63-0.86c-0.04-0.15-0.09-0.3-0.13-0.45c-0.25-0.23-0.34-0.21-0.54-0.54
	c-0.21-0.35-0.19-0.71-0.41-1.08c-0.2-0.35-0.61-0.63-0.86-0.94c-0.2-0.25-0.83-1.25-0.81-1.26c-0.36-0.33-0.78-0.84-1.03-1.26
	c-0.99-1.63-1.77-3.54-2.88-5.17c-0.19-0.28,0.11-0.89-0.09-1.26c0.04-0.01,0.09-0.03,0.14-0.04C4,87.41,3.34,85.41,3.22,85.09
	c-0.03-0.31-0.06-0.63-0.09-0.94c-1.1-3.47-1.84-7.61-2.74-11.39c-0.18-0.74,0.05-1.47-0.05-2.47c-0.16-1.64-0.52-3.8-0.22-5.31
	C0.26,64.2,0,63.37,0.16,62.64c0.15-0.71-0.09-1.41-0.14-1.98c-0.11-1.4,0.2-2.72,0.41-3.78c-0.03-0.3-0.06-0.6-0.09-0.9
	c-0.03-0.62,0.14-1.58,0.27-2.16c0-0.4,0-0.81,0-1.21c0.26-1.11,0.41-2.23,0.77-3.29c0.14-0.24,0.27-0.48,0.41-0.72
	c0-0.32,0-0.63,0-0.94c0.32-1.08,0.4-2.06,0.67-3.06c0.22-0.82,0.63-1.73,0.99-2.48c0.1-0.2,0.3-0.83,0.23-0.94
	c0.67-1.13,1.02-2.3,1.49-3.65c0.16-0.46,0.61-0.52,0.86-0.85c0.43-0.96,0.87-1.92,1.3-2.88c0.73-1.1,1.81-1.96,2.48-3.15
	c0.39-0.7,0.58-1.42,0.94-2.16c0.27-0.38,0.54-0.75,0.81-1.12c1.14-1.95,2.34-3.69,3.87-5.13c0.38-0.36,0.61-0.9,0.94-1.31
	c0.17-0.2,0.42-0.28,0.63-0.45c0.19-0.27,0.39-0.54,0.58-0.81c0.26-0.29,0.79-0.86,1.08-1.08c0.16-0.09,0.33-0.18,0.49-0.27
	c0.08-0.16,0.15-0.33,0.23-0.5c0.18-0.1,0.36-0.21,0.54-0.31c0.3-0.27,0.49-0.75,0.81-0.99c0.09-0.01,0.18-0.03,0.27-0.04
	c0.37-0.23,0.45-0.81,0.77-1.08c0.59-0.5,1.22-1.05,1.84-1.48c0.36-0.25,0.77-0.29,1.12-0.54c0.8-0.56,1.65-1.44,2.39-2.11
	c0.25-0.23,0.42-0.62,0.85-0.54c-0.02-0.04-0.03-0.09-0.05-0.14c0.61-0.19,1.2-0.71,1.71-1.03c0.25-0.09,0.51-0.18,0.76-0.27
	c0.74-0.49,1.5-0.84,2.29-1.31c0.51-0.3,0.91-0.88,1.53-1.12c0.21,0,0.42,0,0.63,0c0.15-0.07,0.43-0.36,0.58-0.45
	c0.27-0.15,0.5-0.07,0.81-0.18c0.21-0.08,0.48-0.33,0.72-0.41c0.12,0,0.24,0,0.36,0c0.42-0.19,0.79-0.69,1.21-0.9
	c0.89-0.43,1.62-0.35,2.61-0.81c1.08-0.51,2.08-1.15,3.24-1.57c0.46-0.17,0.83-0.09,1.21-0.23c0.16-0.06,0.38-0.22,0.58-0.27
	c0.24-0.06,0.9-0.1,0.95,0c0.58-0.55,2.47-0.65,3.24-0.45c0.58-0.16,1.11-0.52,1.71-0.63c0.66-0.12,1.2,0.1,1.89-0.04
	c1.35-0.28,4.18-0.8,5.58-0.63c0.09-0.03,0.18-0.06,0.27-0.09c0.78-0.15,2.12-0.18,2.65-0.09c0.27-0.03,0.54-0.06,0.81-0.09
	c0.69,0,1.4,0.06,2.16,0.18c0.51,0.08,1.04-0.05,1.44,0.18c0,0,0.31-0.1,0.4-0.09c0.65,0.09,1.48-0.01,2.16,0.09
	c0.71,0.11,1.87,0.19,2.61,0.36c0.83,0.19,1.55,0.77,2.52,0.68c0.78-0.08,1.29,0.34,1.8,0.22c0.05,0.2,0.03,0.18,0.23,0.23
	c0.48-0.37,1.08,0.3,1.58,0.31c0.99,0.03,1.6,0.23,2.43,0.45c0.33,0.02,0.66,0.03,0.99,0.04c0.22,0.07,0.69,0.18,1.12,0.27
	c0.12-0.02,0.24-0.03,0.36-0.04c0.15,0.09,0.3,0.18,0.45,0.27c0.28,0.07,0.57-0.06,0.9,0.04c0.48,0.15,1.17,0.52,1.58,0.77
	c0.33,0.11,0.66,0.21,0.99,0.32c1.07,0.5,1.93,0.95,2.83,1.3c0.48,0.19,0.89,0.18,1.3,0.41c0.66,0.36,1.34,0.93,1.98,1.26
	C93.5,7.44,94,7.56,94.16,7.97c0.29-0.04,1.46,0.96,1.8,1.17c0.65,0.41,1.36,0.61,1.98,1.04c0.33,0.23,0.69,0.69,1.04,0.86
	c0.32,0.15,0.56,0.11,0.86,0.27c0.53,0.28,0.95,0.87,1.48,1.12c-0.04,0.07-0.12,0.03-0.04,0.09c0.48,0.38,0.99,0.85,1.44,1.4
	c0.1,0,0.3,0.06,0.41,0.18c0.22,0.25,0.49,0.72,0.77,0.9c0.42,0.27,1,0.77,1.39,1.21c0.2,0.22,0.55,0.19,0.81,0.36
	c0.51,0.32,0.76,1.01,1.31,1.3c0,0.03,0,0.06,0,0.09c0.91,0.62,1.77,1.39,2.61,2.12c0.66,0.57,1.04,1.62,1.67,2.25
	c-0.03,0.06-0.06,0.12-0.09,0.18C111.7,22.55,111.82,22.59,111.94,22.64z"/>
<g>
	<g>
		<path class="st1" d="M82.67,51.17c3.22,0,3.22-5,0-5C79.45,46.17,79.44,51.17,82.67,51.17L82.67,51.17z"/>
	</g>
</g>
<g>
	<g>
		<path class="st2" d="M89.03,53.32c0.6-4.15-1.54-8.24-5.56-9.75c-2.01-0.75-4.5-0.79-5.55,1.43c-0.87,1.84-0.38,4.23,0.52,5.96
			c0.92,1.78,2.66,3.24,4.62,3.71c2.54,0.61,4.51-0.93,5.36-3.23c1.28-3.48,0.62-8.93-4.05-9.13c-2.54-0.11-4.82,1.69-5.86,3.91
			c-1.1,2.35-0.96,4.85,0.12,7.16c0.57,1.22,2.33,1.53,3.42,0.9c1.25-0.73,1.47-2.19,0.9-3.42c-0.44-0.95-0.29-2.28,0.43-3.07
			c0.32-0.35,0.85-0.33,0.61-0.56c0.16,0.16,0.05,0.91,0.04,1.09c-0.05,0.51-0.25,0.98-0.32,1.48c-0.01,0.09-0.05,0.17-0.11,0.24
			c-0.25,0.37-0.06,0.29,0.57-0.25c-0.01-0.07-0.57-0.3-0.62-0.35c-0.85-0.65-1.24-1.81-0.93-2.83c-0.21,0.37-0.43,0.74-0.64,1.1
			c0.07-0.09,0.15-0.18,0.22-0.27c-0.37,0.21-0.74,0.43-1.1,0.64c0.59-0.21,1.81,0.8,2.22,1.29c0.56,0.68,1.04,1.69,0.9,2.6
			c-0.19,1.33,0.33,2.69,1.75,3.08C87.13,55.39,88.84,54.66,89.03,53.32L89.03,53.32z"/>
	</g>
</g>
<g>
	<g>
		<path class="st3" d="M87.98,52.13c3.13-4.2,8.78-11.77,7.94-17.41c-0.51-3.41-4.39-5.88-7.38-3.45c-3.74,3.05-2.9,11.96-3,16.16
			c-0.12,5.62,0.55,10.71,4.07,15.24c1.48,1.9,4.1,0.12,4.27-1.77c0.8-8.8-2.5-16.79-6.34-24.52c-1.14-2.29-4.64-1.1-4.66,1.26
			c-0.04,5.09-0.08,10.18-0.12,15.26c1.55-0.42,3.11-0.84,4.66-1.26c-1.11-2.14-2.04-4.3-2.81-6.58c-0.71-2.09-4.42-2.65-4.82,0
			c-1.06,6.97-0.72,13.69,1.2,20.48c0.79,2.8,4.73,2.1,4.91-0.66c0.23-3.59-1.27-6.75-2.46-10.1c-1.42-3.98-2.84-7.97-4.25-11.95
			c-1.1-3.09-5.29-1.82-4.82,1.33c0.74,4.92,1.47,9.84,2.21,14.76c0.4,2.67,4.09,2.06,4.82,0c2.24-6.31,0.5-12.84,1.77-19.28
			c-1.61,0-3.21,0-4.82,0c-0.58,1.07-1.15,2.13-1.73,3.2c-2.75,1.43-0.64,4.92,1.93,4.57c1.7-0.25,3.4-0.39,5.11-0.43
			c3.2-0.14,3.22-5.14,0-5c-2.17,0.1-4.29,0.31-6.44,0.6c0.64,1.52,1.28,3.05,1.93,4.57c3.49-1.81,4.8-5.07,4.03-8.85
			c-0.48-2.38-4.35-2.39-4.82,0c-1.27,6.38,0.42,13.1-1.77,19.28c1.61,0,3.21,0,4.82,0c-0.74-4.92-1.47-9.84-2.21-14.76
			c-1.61,0.44-3.21,0.89-4.82,1.33c1.2,3.37,2.4,6.74,3.6,10.11c1.18,3.31,3.16,7.04,2.93,10.61c1.64-0.22,3.27-0.44,4.91-0.66
			c-1.66-5.87-2.11-11.78-1.2-17.82c-1.61,0-3.21,0-4.82,0c0.92,2.69,2.01,5.25,3.32,7.78c1.17,2.26,4.64,1.13,4.66-1.26
			c0.04-5.09,0.08-10.18,0.12-15.26c-1.55,0.42-3.11,0.84-4.66,1.26c3.47,6.99,6.38,14.04,5.66,21.99c1.42-0.59,2.85-1.18,4.27-1.77
			c-3.96-5.1-2.73-13.3-2.13-19.29c0.07-0.63,0.13-1.26,0.2-1.89c0.66-2.51,0.59-2.96-0.21-1.36c-1.19,1.12-1.48,3.28-2.21,4.77
			c-1.44,2.92-3.19,5.64-5.13,8.25C81.75,52.19,86.08,54.68,87.98,52.13L87.98,52.13z"/>
	</g>
</g>
<g>
	<g>
		<path class="st4" d="M87.71,51.39c-2.74,6.96-1.84,14.49,2.41,20.64c1.45,2.1,4.44,1.24,4.66-1.26
			c1.59-17.97,0.83-35.94-2.14-53.73c-0.5-3.01-4.62-1.89-4.91,0.66c-0.9,7.87-1.31,15.76-1.11,23.68
			c0.11,4.43,0.15,9.32,4.45,11.76c1.7,0.97,3.67-0.27,3.76-2.16c0.35-7.55,0.7-15.1,1.05-22.64c-1.67,0-3.33,0-5,0
			c0.08,4.61,1.58,6.43,5.74,7.71c-0.58-0.58-1.16-1.16-1.75-1.75c0.18,1.45-0.52,2.27-2.11,2.47c-0.16-0.78-0.42-1.53-0.76-2.24
			c-0.37-0.71-0.76-1.39-1.41-1.91c-2.08-1.65-4.71-0.99-6.94-0.09c-5.44,2.2-9.17,7.12-10.6,12.69c-0.62,2.42,2.38,4.19,4.18,2.43
			c2.62-2.55,5.56-11.37,10.16-9.54c-0.37-1.39-0.74-2.79-1.1-4.18c-4.13,4.23-8.02,8.67-11.62,13.37
			c-2.31,3.01-7.02,7.28-5.69,11.4c0.58,1.81,2.77,2.42,4.18,1.1c2.86-2.68,4.8-5.86,6.51-9.36c0.84-1.72,4.07-10.58,6.22-10.43
			c-0.72-0.41-1.44-0.83-2.16-1.24c-0.04-0.05-5.81,9.23-6.43,10.29c-2.17,3.77-4.34,7.54-6.51,11.31c-1.4,2.44,1.92,5.09,3.93,3.03
			c6.9-7.09,11.17-15.84,15.25-24.75c-1.52-0.64-3.05-1.28-4.57-1.93c-3.28,9.61-6.56,19.22-9.84,28.84
			c-0.78,2.29,2.59,4.37,4.18,2.43c5.16-6.31,8.61-13.39,10.46-21.33c0.73-3.13-4.03-4.46-4.82-1.33
			c-1.92,7.61-2.72,15.3-2.35,23.14c0.15,3.21,4.86,3.22,5,0c0.22-5.24,0.45-10.48,0.67-15.73c0.1-2.35-3.66-3.58-4.66-1.26
			c-2.07,4.8-2.68,9.32-1.98,14.5c0.38-0.94,0.77-1.88,1.15-2.82c-0.93,0.55-1.86,1.11-2.79,1.66c-2.76,1.65-0.25,5.97,2.52,4.32
			c0.93-0.55,1.86-1.11,2.79-1.66c1.06-0.63,1.3-1.69,1.15-2.82c-0.5-3.69,0-7.24,1.47-10.65c-1.55-0.42-3.11-0.84-4.66-1.26
			C83.45,58,83.23,63.24,83,68.49c1.67,0,3.33,0,5,0c-0.35-7.41,0.35-14.61,2.17-21.81c-1.61-0.44-3.21-0.89-4.82-1.33
			c-1.64,7.05-4.57,13.5-9.17,19.12c1.39,0.81,2.79,1.62,4.18,2.43c3.28-9.61,6.56-19.22,9.84-28.84c0.9-2.64-3.38-4.52-4.57-1.93
			c-3.89,8.5-7.88,16.96-14.47,23.74c1.31,1.01,2.62,2.02,3.93,3.03c3.56-6.19,7.13-12.38,10.69-18.58
			c1.31-2.28,5.32-7.62,0.75-9.22c-3.54-1.24-6.17,3.17-7.58,5.57c-3.11,5.29-4.75,11.3-9.34,15.6c1.39,0.37,2.79,0.74,4.18,1.1
			c-0.57-1.76,6.21-8.86,7.3-10.2c2.75-3.37,5.68-6.59,8.72-9.71c1.42-1.45,0.61-3.5-1.1-4.18c-8.08-3.2-10.69,6.62-15.02,10.83
			c1.39,0.81,2.79,1.62,4.18,2.43c0.7-2.72,1.9-5.09,3.99-7.02c1.04-0.96,2.37-1.97,3.74-2.38c1.93-0.57,1.46-0.33,2.34,0.94
			c1.76,2.54,2.76,5.33,6.71,4.17c2.76-0.81,5.41-4.43,5.48-7.32c0.1-3.99-4.19-3.07-4.25-6.61c-0.06-3.23-4.85-3.21-5,0
			c-0.35,7.55-0.7,15.1-1.05,22.64c1.25-0.72,2.51-1.44,3.76-2.16c-3.56-2.02-2.06-11.76-1.99-15.03
			c0.11-5.38,0.52-10.74,1.13-16.09c-1.64,0.22-3.27,0.44-4.91,0.66c2.9,17.34,3.52,34.89,1.97,52.4c1.55-0.42,3.11-0.84,4.66-1.26
			c-3.58-5.18-4.21-10.95-1.91-16.79C93.71,49.73,88.88,48.43,87.71,51.39L87.71,51.39z"/>
	</g>
</g>
<g>
	<g>
		<path class="st4" d="M86,51.5c3.22,0,3.22-5,0-5C82.78,46.5,82.78,51.5,86,51.5L86,51.5z"/>
	</g>
</g>
</svg>
