<?xml version="1.0" encoding="utf-8"?>
<!-- Generator: Adobe Illustrator 23.0.1, SVG Export Plug-In . SVG Version: 6.00 Build 0)  -->
<svg version="1.1" id="Layer_1" xmlns="http://www.w3.org/2000/svg" xmlns:xlink="http://www.w3.org/1999/xlink" x="0px" y="0px"
	 viewBox="0 0 126.77 127.44" style="enable-background:new 0 0 126.77 127.44;" xml:space="preserve">
<style type="text/css">
	.st0{fill-rule:evenodd;clip-rule:evenodd;fill:#795AA6;}
	.st1{fill:#795AA6;}
</style>
<path class="st0" d="M111.94,22.64c0,0.06,0,0.12,0,0.18c0.29,0.2,0.56,0.59,0.9,0.86c0.17,0.07,0.33,0.15,0.5,0.23
	c0.19,0.18,0.23,0.59,0.31,0.67c0.22,0.21,0.6,0.14,0.77,0.4c0.57,0.91,1.21,1.76,1.8,2.57c0.01,0.12,0.03,0.24,0.05,0.36
	c0.09,0.04,0.18,0.09,0.27,0.13c0.12,0.16,0.16,0.55,0.22,0.63c0.08,0.03,0.15,0.06,0.22,0.09c0.18,0.22,0.23,0.61,0.45,0.94
	c0.11,0.17,0.29,0.22,0.45,0.41c0.19,0.22,0.18,0.86,0.22,0.94c0.12,0.21,0.38,0.56,0.54,0.77c-0.02,0.09-0.03,0.18-0.04,0.27
	c0.28,0.53,0.73,0.93,1.04,1.44c0,0.1-0.01,0.35,0.09,0.5c0.14,0.21,0.42,0.35,0.58,0.72c0.35,0.82,0.77,1.86,1.17,2.75
	c0.1,0.22,0.02,0.45,0.09,0.59c0.07,0.13,0.34,0.29,0.41,0.45c0.09,0.24-0.09,0.23-0.04,0.45l0.67,1.58
	c0.09,0.1,0.29,0.15,0.36,0.27c0.11,0.19,0.28,0.75,0.23,0.99c-0.04,0.14-0.09,0.27-0.13,0.41c0.07,0.34,0.38,0.71,0.45,1.08
	c0.09,0.47,0.09,1.08,0.22,1.35c0.04,0.03,0.09,0.06,0.14,0.09c0.02,0.58,0.33,1.31,0.54,1.8c0.23,0.55-0.03,1.42,0.31,2.25
	c0.55,1.35,0.91,3,0.9,4.77c0,0,0.26,0.65,0.27,0.77c0.03,0.23-0.02,0.42-0.13,0.58c0.18,0.3,0.42,0.77,0.27,1.04
	c-0.07,0.09-0.05-0.03-0.09,0.09c0.23,0.36,0.09,0.89-0.04,1.17c0.08,0.15,0.16,0.21,0.18,0.45c-0.03,0-0.06,0-0.09,0
	c-0.04-0.1-0.02-0.07-0.09-0.14c0,0.1,0,0.21,0,0.31c0.28,0.21,0.33,2.09,0.23,2.29c0.17,0.03,0.1-0.05,0.13,0.14
	c-0.03,0.02-0.06,0.03-0.09,0.04c0.18,0.08,0.15,0.24,0.13,0.5c0,0.07,0,0.15,0,0.23c-0.04,0.01-0.09,0.03-0.13,0.04
	c0.01,0,0.03,0,0.04,0c0.09,0.11,0.1,0.07,0.13,0.27c-0.15,0.39,0.15,2.16,0.27,2.7c-0.19,0.01-0.09-0.07-0.18,0.04
	c0.07,0.05,0.43,2.94,0.31,3.47c-0.17,0.75-0.01,1.7-0.22,2.56c0,0.45,0,0.9,0,1.35c-0.16,0.47-0.42,1.11-0.59,1.62
	c-0.09,0.75-0.18,1.5-0.27,2.25c-0.08,0.37-0.28,0.71-0.31,1.12c0.1,0,0.04-0.04,0.09,0.05c-0.29,0.67-0.21,1.65-0.32,2.2
	c-0.09,0.44,0.06,0.92-0.27,1.12c0.14,0.37-0.07,1.42-0.36,1.62c0.07,0.11,0.09,0.11,0.13,0.27c-0.67,0.68-0.75,2.29-1.48,2.93
	c0.18,0.24-0.08,1.14-0.23,1.57c-0.24,0.69-0.58,1.17-0.9,1.8c-0.23,0.45-0.2,1.04-0.36,1.48c-0.04-0.01-0.09-0.03-0.14-0.04
	c-0.06,0.42-0.28,0.24-0.49,0.54c-0.39,0.55-0.64,1.3-0.99,1.84c-0.28,0.44-0.25,0.95-0.5,1.44c-0.44,0.89-0.98,1.79-1.58,2.52
	c-0.03,0.16-0.06,0.33-0.09,0.49c-0.06,0.13-0.79,1.21-0.9,1.31c-0.07,0.05-0.09-0.03-0.18,0.09c0.04,0.06,0.11,0.08,0.04,0.13
	c-0.54,0.94-1.7,2.53-2.29,3.15c0.02,0.24-0.3,0.38-0.45,0.58c0.14,0.4-0.7,0.86-0.81,1.21c0,0.02,0,0.03,0,0.04
	c-0.04,0.02-0.09,0.03-0.13,0.04c0.05,0.02,0.14-0.02,0.09,0.09c-0.02,0-0.03,0-0.04,0c-0.1,0.35-0.43,0.46-0.59,0.77
	c-0.09-0.05-0.09-0.06-0.23-0.09c0.01,0.51-0.4,0.42-0.45,0.85c-0.26,0.02-0.32,0.09-0.5,0.18c0.06,0.08,0.09,0.08,0.14,0.18
	c-0.44,0.36-0.75,1.01-1.12,1.44c-0.42,0.48-1,0.84-1.44,1.3c-0.43,0.45-0.65,1.08-1.08,1.53c-0.11,0.12-0.46,0.23-0.54,0.36
	c-0.09,0.13-0.09,0.45-0.18,0.58c-0.2,0.3-0.85,0.37-1.03,0.54c-0.1,0.1-0.11,0.26-0.23,0.36c0,0.03,0,0.06,0,0.09
	c-0.22,0.14-0.44,0.07-0.63,0.22c-0.35,0.28-0.49,0.69-0.95,0.9c0-0.06,0-0.12,0-0.18c0,0.03,0,0.06,0,0.09
	c-0.09,0.07-0.09,0.12-0.13,0.23c-0.12,0-0.94,0.59-1.04,0.67c0.1,0.25-0.34,0.44-0.5,0.58c-0.24,0.23-0.36,0.58-0.67,0.76
	c-0.22,0.13-0.33,0.01-0.54,0.09c-0.17,0.07-0.33,0.23-0.5,0.32c0.03,0.03,0.06,0.06,0.09,0.09c-0.01,0-0.03,0-0.04,0
	c-0.3,0.25-0.72,0.45-1.21,0.63c0.06,0.11,0.08,0.02,0.04,0.14c-0.27,0.13-0.55,0.14-0.76,0.27c0.04,0.03,0.09,0.06,0.13,0.09
	c-0.07,0.08-0.1,0.15-0.13,0.18c-0.2,0.15-0.47,0.38-0.72,0.45c-0.04,0-0.09,0-0.13,0c-0.02,0.06-0.03,0.12-0.05,0.18
	c-0.2,0.12-0.42,0.21-0.58,0.27c0.03,0.03,0.06,0.06,0.09,0.09c-0.01,0-0.03,0-0.04,0c-0.03,0.03-0.06,0.06-0.09,0.09
	c-0.13-0.01-0.04-0.1-0.13,0c0,0,0,0.03,0.04,0.09c-0.02,0-0.03,0-0.04,0c-0.26,0.09-0.48,0.42-0.68,0.58
	c-0.15,0.13-0.55,0.05-0.67,0.23c-0.02,0.07-0.03,0.15-0.04,0.22c-0.33,0-0.54,0.22-0.86,0.13c-0.4,1.26-2.42,1.83-3.83,2.29
	c-1.01,0.33-2.32,1.03-3.24,1.39c-1.02,0.4-1.78,0.43-2.75,0.81c-0.22,0.17-0.45,0.33-0.67,0.5c-0.48,0.3-1.12,0.43-1.67,0.5
	c0-0.03,0-0.06,0-0.09c-0.27,0.22-0.77,0.09-1.17,0.22c-0.61,0.21-1.06,0.22-1.89,0.45c-1.13,0.31-2.46,0.74-3.74,1.08
	c-0.2,0.05-0.71-0.06-0.99,0.05c-0.3,0.11-0.4,0.35-0.81,0.5c-0.38,0.14-2.15,0.32-2.21,0.31c-0.35-0.04-2.67,0.64-2.97,0.41
	c-0.1-0.07,0.03-0.05-0.09-0.09c-0.24,0.21-0.83,0.08-1.21,0.13c-0.75,0.1-1.74-0.05-2.43-0.04c-0.12,0.04-0.24,0.09-0.36,0.13
	c-0.15-0.03-0.56-0.17-0.94-0.04c-0.72,0.22-1.84,0.23-2.57,0.32l-0.9-0.09c-0.23,0.24-0.68,0.01-1.21,0.13
	c-1.01,0.24-3.01-0.04-3.83-0.22c-0.43,0-0.87,0-1.3,0c-0.3-0.09-0.6-0.18-0.9-0.27c-1.2-0.33-2.28-0.16-3.29-0.63
	c-0.72,0.06-1.44-0.15-2.16-0.32c-0.65-0.15-1.24,0.13-1.84-0.22c-0.03-0.05-0.06-0.09-0.09-0.14c-0.08,0.08-0.54,0.05-0.76-0.04
	c-0.29-0.12-0.68-0.44-0.99-0.54c-0.39-0.13-0.71-0.03-0.99-0.23c-0.02-0.03-0.03-0.06-0.05-0.09c-0.4,0.17-2.5-0.62-2.92-0.85
	c-0.4-0.23-1.36-0.32-1.93-0.63c-0.29-0.16-0.33-0.57-0.58-0.72c-1.11-0.68-2.28-1.11-3.38-1.8c-0.04-0.17-1.37-1.02-1.67-1.21
	c-0.12-0.08-0.35-0.05-0.4-0.09c-2.01-1.54-4.58-2.56-6.62-4.19c-0.68-0.55-1.38-1.09-2.02-1.67c-0.07-0.06-0.59-0.52-0.63-0.41
	c-1.21-1.7-2.96-3.12-4.59-4.41c-0.66-0.52-1.14-1.28-1.75-1.84c-0.23-0.1-0.45-0.21-0.67-0.32c-0.38-0.33-0.92-1.14-1.22-1.57
	c-0.18-0.26-0.56-0.39-0.81-0.58c-0.2-0.16-0.25-0.42-0.41-0.63c-0.17-0.12-0.33-0.24-0.5-0.36c-0.6-0.73-1.22-1.54-1.66-2.29
	c-0.09-0.24-0.18-0.48-0.27-0.72c-0.21-0.29-0.42-0.57-0.63-0.86c-0.04-0.15-0.09-0.3-0.13-0.45c-0.25-0.23-0.34-0.21-0.54-0.54
	c-0.21-0.35-0.19-0.71-0.41-1.08c-0.2-0.35-0.61-0.63-0.86-0.94c-0.2-0.25-0.83-1.25-0.81-1.26c-0.36-0.33-0.78-0.84-1.03-1.26
	c-0.99-1.63-1.77-3.54-2.88-5.17c-0.19-0.28,0.11-0.89-0.09-1.26c0.04-0.01,0.09-0.03,0.14-0.04C4,87.41,3.34,85.41,3.22,85.09
	c-0.03-0.31-0.06-0.63-0.09-0.94c-1.1-3.47-1.84-7.61-2.74-11.39c-0.18-0.74,0.05-1.47-0.05-2.47c-0.16-1.64-0.52-3.8-0.22-5.31
	C0.26,64.2,0,63.37,0.16,62.64c0.15-0.71-0.09-1.41-0.14-1.98c-0.11-1.4,0.2-2.72,0.41-3.78c-0.03-0.3-0.06-0.6-0.09-0.9
	c-0.03-0.62,0.14-1.58,0.27-2.16c0-0.4,0-0.81,0-1.21c0.26-1.11,0.41-2.23,0.77-3.29c0.14-0.24,0.27-0.48,0.41-0.72
	c0-0.32,0-0.63,0-0.94c0.32-1.08,0.4-2.06,0.67-3.06c0.22-0.82,0.63-1.73,0.99-2.48c0.1-0.2,0.3-0.83,0.23-0.94
	c0.67-1.13,1.02-2.3,1.49-3.65c0.16-0.46,0.61-0.52,0.86-0.85c0.43-0.96,0.87-1.92,1.3-2.88c0.73-1.1,1.81-1.96,2.48-3.15
	c0.39-0.7,0.58-1.42,0.94-2.16c0.27-0.38,0.54-0.75,0.81-1.12c1.14-1.95,2.34-3.69,3.87-5.13c0.38-0.36,0.61-0.9,0.94-1.31
	c0.17-0.2,0.42-0.28,0.63-0.45c0.19-0.27,0.39-0.54,0.58-0.81c0.26-0.29,0.79-0.86,1.08-1.08c0.16-0.09,0.33-0.18,0.49-0.27
	c0.08-0.16,0.15-0.33,0.23-0.5c0.18-0.1,0.36-0.21,0.54-0.31c0.3-0.27,0.49-0.75,0.81-0.99c0.09-0.01,0.18-0.03,0.27-0.04
	c0.37-0.23,0.45-0.81,0.77-1.08c0.59-0.5,1.22-1.05,1.84-1.48c0.36-0.25,0.77-0.29,1.12-0.54c0.8-0.56,1.65-1.44,2.39-2.11
	c0.25-0.23,0.42-0.62,0.85-0.54c-0.02-0.04-0.03-0.09-0.05-0.14c0.61-0.19,1.2-0.71,1.71-1.03c0.25-0.09,0.51-0.18,0.76-0.27
	c0.74-0.49,1.5-0.84,2.29-1.31c0.51-0.3,0.91-0.88,1.53-1.12c0.21,0,0.42,0,0.63,0c0.15-0.07,0.43-0.36,0.58-0.45
	c0.27-0.15,0.5-0.07,0.81-0.18c0.21-0.08,0.48-0.33,0.72-0.41c0.12,0,0.24,0,0.36,0c0.42-0.19,0.79-0.69,1.21-0.9
	c0.89-0.43,1.62-0.35,2.61-0.81c1.08-0.51,2.08-1.15,3.24-1.57c0.46-0.17,0.83-0.09,1.21-0.23c0.16-0.06,0.38-0.22,0.58-0.27
	c0.24-0.06,0.9-0.1,0.95,0c0.58-0.55,2.47-0.65,3.24-0.45c0.58-0.16,1.11-0.52,1.71-0.63c0.66-0.12,1.2,0.1,1.89-0.04
	c1.35-0.28,4.18-0.8,5.58-0.63c0.09-0.03,0.18-0.06,0.27-0.09c0.78-0.15,2.12-0.18,2.65-0.09c0.27-0.03,0.54-0.06,0.81-0.09
	c0.69,0,1.4,0.06,2.16,0.18c0.51,0.08,1.04-0.05,1.44,0.18c0,0,0.31-0.1,0.4-0.09c0.65,0.09,1.48-0.01,2.16,0.09
	c0.71,0.11,1.87,0.19,2.61,0.36c0.83,0.19,1.55,0.77,2.52,0.68c0.78-0.08,1.29,0.34,1.8,0.22c0.05,0.2,0.03,0.18,0.23,0.23
	c0.48-0.37,1.08,0.3,1.58,0.31c0.99,0.03,1.6,0.23,2.43,0.45c0.33,0.02,0.66,0.03,0.99,0.04c0.22,0.07,0.69,0.18,1.12,0.27
	c0.12-0.02,0.24-0.03,0.36-0.04c0.15,0.09,0.3,0.18,0.45,0.27c0.28,0.07,0.57-0.06,0.9,0.04c0.48,0.15,1.17,0.52,1.58,0.77
	c0.33,0.11,0.66,0.21,0.99,0.32c1.07,0.5,1.93,0.95,2.83,1.3c0.48,0.19,0.89,0.18,1.3,0.41c0.66,0.36,1.34,0.93,1.98,1.26
	C93.5,7.44,94,7.56,94.16,7.97c0.29-0.04,1.46,0.96,1.8,1.17c0.65,0.41,1.36,0.61,1.98,1.04c0.33,0.23,0.69,0.69,1.04,0.86
	c0.32,0.15,0.56,0.11,0.86,0.27c0.53,0.28,0.95,0.87,1.48,1.12c-0.04,0.07-0.12,0.03-0.04,0.09c0.48,0.38,0.99,0.85,1.44,1.4
	c0.1,0,0.3,0.06,0.41,0.18c0.22,0.25,0.49,0.72,0.77,0.9c0.42,0.27,1,0.77,1.39,1.21c0.2,0.22,0.55,0.19,0.81,0.36
	c0.51,0.32,0.76,1.01,1.31,1.3c0,0.03,0,0.06,0,0.09c0.91,0.62,1.77,1.39,2.61,2.12c0.66,0.57,1.04,1.62,1.67,2.25
	c-0.03,0.06-0.06,0.12-0.09,0.18C111.7,22.55,111.82,22.59,111.94,22.64z"/>
<g>
	<g>
		<path class="st1" d="M82.67,51.17c3.22,0,3.22-5,0-5C79.45,46.17,79.44,51.17,82.67,51.17L82.67,51.17z"/>
	</g>
</g>
</svg>
