<?xml version="1.0" encoding="utf-8"?>
<!-- Generator: Adobe Illustrator 23.0.1, SVG Export Plug-In . SVG Version: 6.00 Build 0)  -->
<svg version="1.1" id="Layer_1" xmlns="http://www.w3.org/2000/svg" xmlns:xlink="http://www.w3.org/1999/xlink" x="0px" y="0px"
	 viewBox="0 0 128.24 147.56" style="enable-background:new 0 0 128.24 147.56;" xml:space="preserve">
<style type="text/css">
	.st0{fill-rule:evenodd;clip-rule:evenodd;fill:#F7914B;}
	.st1{fill:#231F20;}
	.st2{fill:#FFDD6F;}
	.st3{fill:#795AA6;}
	.st4{fill:#81CECB;}
	.st5{fill:#F7914B;}
</style>
<path class="st0" d="M127.71,109.17c-0.01-1.31,0.03-2.25,0.09-3.74c0.03-0.33,0.06-0.66,0.09-0.99c-0.15-0.73-0.33-2.91-0.13-3.87
	c0.04-0.24,0.09-0.48,0.13-0.72c-0.04-0.78-0.15-1.64,0-2.39c0.1-0.48-0.17-2.42-0.27-2.92c0.04-0.42,0.09-0.84,0.13-1.26
	c-0.01-0.48-0.03-0.96-0.04-1.44c0.09-0.61,0.18-1.23,0.27-1.84c0.11-0.62-0.1-1.44-0.18-1.94c0.03-0.29,0.06-0.57,0.09-0.86
	c-0.12-0.6-0.03-2.89,0.14-3.6c0.15-0.62-0.04-1.2-0.14-1.71c-0.18-1-0.04-2.16-0.18-3.19c-0.03-0.22-0.16-0.54-0.09-0.86
	c0.16-0.79,0.22-1.25,0.18-2.16c-0.04-0.18-0.09-0.36-0.13-0.54c0.17-1.13,0.72-3.18,0.54-4.19c-0.1-0.59-0.04-1.54-0.09-1.84
	c-0.16-0.99-0.29-2.31-0.18-3.2c-0.06-0.79-0.12-1.59-0.18-2.38c-0.08-3.04-0.05-5.55,0-8.15c0.02-0.88-0.12-1.43,0-2.07
	c0.08-0.4-0.25-0.68,0-0.85c0-0.07,0-0.15,0-0.22c-0.1,0.06-0.03-0.01-0.09,0.09c-0.01,0-0.03,0-0.04,0
	c0.09-0.62,0.07-2.33-0.13-3.06c0-0.78,0-1.56,0-2.34c-0.04-0.14-0.09-0.27-0.13-0.41c0.09-0.39-0.01-0.82-0.04-1.35
	c-0.09-1.49-0.05-3.21,0.04-4.41c0.07-0.87,0.13-2,0.09-2.66c0.06-0.3,0.12-0.6,0.18-0.9c-0.04-0.22-0.2-0.35-0.27-0.5
	c-0.03-0.21-0.06-0.42-0.09-0.63c-0.2-0.44-0.89-0.61-1.31-0.85c-0.91-0.54-1.71-1.15-2.66-1.71c-1.34-0.79-2.72-1.8-4.05-2.61
	c-0.58-0.35-1.26-0.49-1.85-0.81c-0.5-0.36-0.99-0.72-1.48-1.08c-0.33-0.12-0.66-0.24-0.99-0.36c-0.99-0.57-1.9-1.05-2.93-1.62
	c-0.47-0.27-0.88-0.79-1.35-1.08c-0.28-0.17-0.63-0.15-0.9-0.31c-0.43-0.27-0.89-0.65-1.35-0.9c-0.51-0.28-1.02-0.39-1.53-0.68
	c-0.35-0.2-0.67-0.58-0.99-0.81c-0.38-0.26-0.89-0.45-1.26-0.68c-0.62-0.38-1.46-0.46-2.12-0.77c-0.72-0.34-1.38-0.91-2.12-1.21
	c-0.7-0.29-1.83-0.57-2.38-0.99c-0.21-0.16-0.43-0.4-0.68-0.54c-0.21-0.06-0.42-0.12-0.63-0.18c-1.28-0.76-2.36-1.81-3.65-2.61
	c-0.52-0.32-1.12-0.41-1.71-0.68c-0.63-0.28-1.38-0.68-2.03-1.03c-1.06-0.58-2.08-1.47-3.11-2.07c-1.49-0.87-2.98-1.68-4.36-2.65
	c-0.07-0.05-0.95-0.48-0.99-0.5c-0.15-0.02-0.3-0.03-0.45-0.05C80,9.08,79.61,8.62,79.2,8.37c-0.79-0.48-1.75-0.63-2.56-1.13
	c-0.82-0.5-1.54-1.26-2.38-1.71c-0.17-0.03-0.33-0.06-0.5-0.09c-0.36-0.21-0.72-0.42-1.08-0.63c-0.27-0.09-0.54-0.18-0.81-0.27
	c-0.41-0.26-0.8-0.7-1.21-0.94c-2.18-1.29-4.38-2.37-6.57-3.6c-0.6,0-0.89,0.44-1.3,0.67c-0.33,0.1-0.66,0.21-0.99,0.31
	c-0.28,0.2-0.57,0.39-0.85,0.59c-0.19,0.06-0.39,0.12-0.58,0.18c-0.2,0.14-0.36,0.4-0.58,0.54c-0.46,0.28-1,0.33-1.48,0.59
	c-1.1,0.58-2.26,1.22-3.33,1.89c-1,0.63-1.99,1.4-3.02,2.02c-0.85,0.52-1.76,0.84-2.61,1.39c-0.46,0.3-0.88,0.87-1.35,1.12
	C47.2,9.73,46.4,9.9,45.63,10.3c-0.46,0.25-0.96,0.7-1.4,0.99c-0.76,0.51-1.53,0.74-2.43,1.17c-0.54,0.26-1.11,0.81-1.62,1.17
	c-0.69,0.49-1.52,0.72-2.25,1.17c-0.93,0.57-1.86,1.38-2.83,1.94c-0.48,0.27-0.94,0.31-1.48,0.54c-0.48,0.31-0.96,0.63-1.44,0.95
	c-1.33,0.63-2.63,0.99-3.92,1.67c-0.29,0.15-0.61,0.51-0.9,0.67c-0.4,0.23-0.79,0.33-1.17,0.59c-0.35,0.29-0.69,0.57-1.04,0.85
	c-0.59,0.33-1.11,0.59-1.62,0.94c-0.13,0.09-0.44,0.06-0.5,0.09c-0.81,0.46-1.74,0.95-2.57,1.4c-0.46,0.18-0.93,0.36-1.4,0.54
	c-0.32,0.24-0.47,0.69-0.85,0.9c-1.43,0.78-2.83,1.5-4.14,2.34c-0.46,0.29-0.96,0.35-1.49,0.58c-0.22,0.1-0.36,0.34-0.54,0.45
	c-0.38,0.23-0.76,0.3-1.12,0.54c-0.31,0.27-0.63,0.54-0.94,0.81c-0.44,0.28-0.91,0.42-1.35,0.72c-0.33,0.33-0.66,0.66-0.99,0.99
	c-0.23,0.15-1.09,0.7-1.26,0.76c-0.17,0.03-0.33,0.06-0.49,0.09c-0.95,0.6-1.89,1.2-2.84,1.8c-0.55,0.29-1.11,0.57-1.66,0.86
	c-0.23,0.2-0.32,0.5-0.59,0.68c-0.07,1.74-0.07,3.32-0.36,4.82c-0.16,0.84,0.18,1.78,0.09,2.47c-0.23,1.8,0.2,4.35,0.05,6.12
	c0.03,0.17,0.06,0.33,0.09,0.5c0.13,0.69-0.07,1.44,0.04,2.07C0.68,52.98,0.63,53.49,0.59,54c0.2,1.3,0.03,2.98-0.18,4.09
	c-0.09,0.49,0.1,1.03,0.18,1.44c-0.02,0.56-0.03,1.11-0.05,1.67c0.04,0.14,0.23,0.45,0.18,0.68c-0.11,0.46-0.1,1-0.23,1.71
	c-0.04,0.26,0.12,0.49,0.09,0.58c-0.3,0.94-0.47,2.17-0.41,3.15c0.01,0.1,0.13,0.2,0.09,0.41C0.05,68.85,0,70.41,0,71.41
	c0,0.86,0.18,1.91,0.27,2.61c-0.02,1.05-0.03,2.1-0.05,3.15c0.21,0.96,0.23,1.47,0.41,2.39c-0.04,0.27-0.09,0.54-0.14,0.81
	c0.17,1.01,0.03,2.36,0,3.42c0.08,0.42,0.15,0.84,0.23,1.26c-0.02,0.29-0.03,0.57-0.04,0.86c0.08,0.37,0.29,1.11,0.23,1.58
	c-0.19,1.3-0.18,2.61-0.09,3.83c-0.09,0.34-0.18,0.69-0.27,1.04c0.02,0.55,0.18,1.19,0.09,1.84c-0.03,0.19-0.12,0.56-0.09,0.72
	c0.06,0.12,0.12,0.24,0.18,0.36c-0.04,0.21-0.21,1.31-0.13,1.71c0.04,0.2,0.25,1.35,0.36,1.48c-0.06,0.06-0.12,0.12-0.18,0.18
	c0.25,0.37-0.01,3.17-0.05,3.83c-0.06,1.1,0.17,1.83,0.09,2.92c-0.04,0.52,0.3,1.26-0.09,1.71c0.08,0.1,0.06,0.1,0.23,0.13
	c-0.06,0.1,0.01,0.03-0.09,0.09c0.14,0.83-0.43,2.82,0.86,2.83c0.07,0.38,0.45,0.36,0.72,0.54c0.24,0.15,0.58,0.57,0.72,0.68
	c0.18,0.13,0.81,0.27,0.94,0.31c0.14,0.12,0.27,0.24,0.41,0.36c0.12,0.03,0.24,0.06,0.36,0.09c0.1,0.1,0.07,0.27,0.18,0.36
	c0.25,0.2,0.52,0.22,0.81,0.4c0.21,0.13,0.41,0.47,0.63,0.58c0.09,0,0.18,0,0.27,0c0.03,0.08,0.06,0.15,0.09,0.23
	c0.18,0.05,0.36,0.09,0.54,0.13c0.32,0.19,0.65,0.61,0.99,0.81c1.35,0.82,2.65,1.53,3.96,2.07c0.15,0.09,0.29,0.43,0.5,0.58
	c0.17,0.13,0.6,0.24,0.68,0.31c0.43,0.45,1.09,0.94,1.62,1.26c0.33,0.12,0.66,0.24,0.99,0.36c0.91,0.59,1.91,1.21,2.79,1.84
	c0.45,0.32,1.06,0.46,1.57,0.68c1.13,0.48,2.33,1.13,3.38,1.71c0.33,0.18,0.66,0.18,0.99,0.36c0.52,0.29,0.94,0.85,1.44,1.17
	c0.76,0.48,1.52,0.95,2.25,1.39c0.3,0.13,0.6,0.27,0.9,0.41c0.09,0.12,0.18,0.24,0.27,0.36c0.17,0.03,0.33,0.06,0.5,0.09
	c0.34,0.22,0.56,0.66,0.94,0.85c0.53,0.28,1.07,0.31,1.58,0.59c0.21,0.12,0.39,0.41,0.58,0.54c0.3,0.12,0.6,0.24,0.9,0.36
	c0.46,0.27,0.84,0.74,1.35,0.99c0.89,0.43,1.96,0.79,2.88,1.35c0.9,0.55,1.78,1.35,2.66,1.94c0.39,0.19,0.78,0.39,1.17,0.58
	c0.51,0.35,0.99,1.03,1.53,1.31c0.14,0.03,0.27,0.06,0.41,0.09c0.29,0.25,0.62,0.65,0.94,0.85c0.15,0.03,0.3,0.06,0.45,0.09
	c0.3,0.17,0.6,0.5,0.9,0.68c0.33,0.2,0.57,0.11,0.85,0.27c0,0.03,0,0.06,0,0.09c3.05,1.46,5.77,3.1,8.77,4.73
	c0.14,0.08,0.11,0.03,0.14,0.22c0.43-0.09,1.68,0.93,2.11,1.17c0.13,0.07,0.3,0.03,0.36,0.04c0.44,0.4,0.95,0.78,1.39,1.17
	c0.06,0.06,1.1,0.33,1.17,0.36c0.25,0.1,0.43,0.46,0.63,0.58c0.19,0.12,0.55,0,0.72,0.09c0.08,0.04,0.03,0.17,0.09,0.22
	c0.33,0.15,0.66,0.3,0.99,0.45c0.28,0.18,0.56,0.46,0.86,0.68c0.64-0.04,0.75-0.65,1.26-0.86c1.26-0.5,2.27-1.12,3.29-1.84
	c0.44-0.31,0.91-0.42,1.26-0.81c0.03,0.04,0.06,0.09,0.09,0.13c0.25-0.2,0.45-0.55,0.72-0.72c0.4-0.12,0.81-0.24,1.21-0.36
	c0.33-0.16,0.57-0.55,0.86-0.72c0.19-0.11,0.33-0.05,0.54-0.13c0.31-0.12,0.54-0.36,0.81-0.49c0-0.03,0-0.06,0-0.09
	c0.23-0.33,0.68-0.59,1.04-0.81c0.08-0.05,0.07-0.22,0.13-0.27c0.32-0.24,0.62,0.03,0.81-0.36c0.13,0.04,0.09,0.03,0.18,0.09
	c0.38-0.48,1.29-0.8,1.93-1.12c0.18-0.09,0.46-0.04,0.58-0.18c0.08-0.08-0.01-0.21,0.09-0.27c0.28-0.18,1.43-0.8,1.71-0.86
	c0-0.04,0-0.09,0-0.13c0.13-0.17,0.87-0.94,1.04-0.99c0.35-0.11,0.86-0.03,1.21-0.27c0.37-0.25,0.93-0.67,1.26-0.81
	c0.69-0.29,1.59-0.32,2.03-0.76c0.1-0.08,0.08-0.08,0.09-0.27c0.06,0.04,0.12,0.09,0.18,0.13c0.61-0.86,2.04-1.18,2.92-1.66
	c0-0.03,0-0.06,0-0.09c0.39-0.49,1.08-0.57,1.62-0.86c0.61-0.32,1.1-0.84,1.67-1.17c0.32-0.1,0.63-0.21,0.94-0.31
	c0.38-0.2,0.67-0.58,1.04-0.77c0.29-0.12,0.57-0.24,0.86-0.36c1.11-0.93,2.42-1.83,3.64-2.61c0.27-0.1,0.54-0.21,0.81-0.32
	c0.42-0.29,0.86-0.92,1.3-1.12c0.31-0.14,0.51-0.1,0.77-0.27c0.29-0.27,0.57-0.54,0.85-0.81c0.73-0.54,1.64-0.86,2.38-1.35
	c0.15-0.1,0.3-0.38,0.45-0.45c0.37-0.18,0.76-0.14,1.12-0.27c0.46-0.17,0.79-0.59,1.17-0.81c0.95-0.55,1.9-0.88,2.83-1.44
	c0.96-0.57,1.8-1.41,2.7-2.02c0.42-0.28,0.91-0.34,1.35-0.59c0.25-0.14,0.47-0.43,0.72-0.58c0.25-0.09,0.51-0.18,0.76-0.27
	c0.55-0.31,1.09-0.88,1.67-1.17c0.57-0.29,1.13-0.47,1.67-0.81c0.29-0.18,0.72-0.6,1.08-0.67c0.42-0.08,2.04-0.51,2.43-0.77
	c0.72-0.47,1.29-1.17,2.02-1.62c0.89-0.54,1.91-0.92,2.48-1.8C128.11,109.48,127.93,109.32,127.71,109.17z"/>
<g>
	<g>
		<path class="st1" d="M65.33,81.33c3.22,0,3.22-5,0-5C62.12,76.33,62.11,81.33,65.33,81.33L65.33,81.33z"/>
	</g>
</g>
<g>
	<g>
		<path class="st2" d="M67.99,79.48c-0.07-2.8-1.37-5.04-3.56-6.72c-0.72-0.55-1.78-0.36-2.52,0c-1.32,0.65-1.97,2.09-1.88,3.51
			c0.09,1.53,1.11,2.76,2.42,3.48c1.11,0.6,2.46,1.05,3.66,1.42c1.46,0.44,3.18,0.36,4.33-0.77c2.51-2.49,0.33-6.27-2.75-6.7
			c-2.76-0.39-5.58,1.22-6.8,3.71c-0.59,1.21-0.33,2.7,0.9,3.42c1.1,0.64,2.83,0.32,3.42-0.9c0.26-0.54,0.55-0.97,1.12-1.2
			c0.33-0.13,0.26-0.02,0.49-0.1c0.08-0.02,0.15-0.02,0.21,0.01c-0.81-0.42-0.56-1.15,0.75-2.19c-0.59-0.35-1.5-0.51-2.15-0.75
			c-0.21-0.08-0.47-0.21-0.67-0.26c-0.3-0.1-0.39-0.15-0.26-0.16c0.48,0.62,0.39,1.23-0.27,1.8c-0.84,0-1.68,0-2.52,0
			c0.72,0.55,1.06,1.52,1.08,2.4C63.06,82.69,68.06,82.71,67.99,79.48L67.99,79.48z"/>
	</g>
</g>
<g>
	<g>
		<path class="st3" d="M85.25,57.77c3.22,0,3.22-5,0-5C82.03,52.77,82.03,57.77,85.25,57.77L85.25,57.77z"/>
	</g>
</g>
<g>
	<g>
		<path class="st3" d="M71.44,81.41c2.41-2.22,3.61-5.43,2.93-8.69c-0.64-3.06-3.43-5.41-6.34-3.17
			c-4.51,3.46-6.93,15.96-0.43,18.42c1.31,0.49,2.68-0.56,3.08-1.75c1.66-5.04,0.42-10.16-3.14-14.05
			c-1.08-1.19-3.16-0.85-3.93,0.51c-2.14,3.77-3.09,7.77-2.76,12.09c0.17,2.25,3.48,3.68,4.66,1.26c1.95-4,2.67-12.99-2.94-14.8
			c-6.62-2.15-6.61,9.24-6.01,12.82c0.38,2.27,3.5,2.23,4.57,0.6c1.46-2.24,1.27-4.85,1.31-7.44c0.04-3.29-0.06-6.58-0.26-9.87
			c-0.16-2.56-3.22-3.29-4.66-1.26c-2.57,3.63-3.27,7.79-2.38,12.11c0.66,3.15,5.48,1.82,4.82-1.33c-0.64-3.09,0.07-5.72,1.87-8.26
			c-1.55-0.42-3.11-0.84-4.66-1.26c0.15,2.41,0.25,4.82,0.26,7.23c0.02,2.12,0.56,5.72-0.63,7.55c1.52,0.2,3.05,0.4,4.57,0.6
			c-0.24-1.46-0.3-2.87-0.06-4.33c0.04-0.59,0.17-1.16,0.39-1.72c0.44-0.98,0.27-0.99-0.5-0.03c0.24,2.66,1.33,4.11-0.02,6.87
			c1.55,0.42,3.11,0.84,4.66,1.26c-0.27-3.52,0.33-6.49,2.08-9.57c-1.31,0.17-2.62,0.34-3.93,0.51c2.39,2.62,2.95,5.85,1.85,9.18
			c1.03-0.58,2.05-1.16,3.08-1.75c-1.16-0.44,0.96-9.5,2.02-9.41c-0.72-0.41-1.44-0.83-2.16-1.24c1.4,1.84,0.68,3.93-0.89,5.37
			C65.53,80.06,69.07,83.59,71.44,81.41L71.44,81.41z"/>
	</g>
</g>
<g>
	<g>
		<path class="st4" d="M51.23,51.89c-0.61,6.82,1.84,13.02,3.52,19.52c1.89,7.34,2.67,14.82,2.58,22.39
			c1.64-0.22,3.27-0.44,4.91-0.66c-2.51-8.36-4.04-16.84-4.56-25.55c-0.12-1.94-2.79-3.58-4.27-1.77
			c-5.12,6.29-2.9,14.61,4.85,17.26c1.16,0.4,2.9-0.46,3.08-1.75c1.01-7.48,0.71-14.73-1.06-22.07c-0.58-2.39-4.23-2.37-4.82,0
			c-1.9,7.67-3.23,16.76,3.8,22.28c1.28,1,2.99,0.98,3.93-0.51c4.11-6.56,3.31-14.65,7.08-21.29c-1.52-0.64-3.05-1.28-4.57-1.93
			c-1.42,5.48-3.67,10.45-6.81,15.15c1.52,0.2,3.05,0.4,4.57,0.6c-0.76-2.68-2.38-8.36-0.51-10.91c-0.72,0.41-1.44,0.83-2.16,1.24
			c1.14-0.12,2.97,11.06,3.11,12c0.38,2.57,4.19,2.18,4.82,0c0.34-1.82,1.36-3.15,3.05-4.01c-1.22-0.5-2.45-1-3.67-1.49
			c0.96,2.57,1.92,5.15,2.88,7.72c0.82,2.19,4.15,2.55,4.82,0c0.87-3.33,0.05-6.42-2.64-8.66c-1.25-1.04-3.89-0.95-4.18,1.1
			c-0.68,4.89-0.78,9.65-0.13,14.55c0.26,1.99,2.61,3.49,4.27,1.77c2.73-2.85,6.15-12.25,0.49-13.94c-6.76-2.02-7.78,8.9-7.16,12.99
			c0.36,2.38,4.47,2.39,4.82,0c0.68-4.66,2.15-12.61-3.72-14.49c-1.32-0.42-2.68,0.5-3.08,1.75c-2.35,7.34-1.51,14.81,2.28,21.51
			c1.21,2.13,4.73,1.23,4.66-1.26c-0.12-4.21-1.28-14.15-6.61-15.46c-5.7-1.4-5.8,8.24-5.68,11.5c1.67,0,3.33,0,5,0
			c-0.27-2.63-0.76-5-1.72-7.47c-1.15-2.97-5.99-1.68-4.82,1.33c0.81,2.1,1.31,3.86,1.54,6.14c0.32,3.13,5.12,3.27,5,0
			c-0.09-2.59-0.13-5.42,1.29-7.72c-0.72,0.41-1.44,0.83-2.16,1.24c2.2-0.29,3.13,9.07,3.17,10.43c1.55-0.42,3.11-0.84,4.66-1.26
			c-3.16-5.58-3.73-11.56-1.78-17.65c-1.03,0.58-2.05,1.16-3.08,1.75c1.57,0.5,0.34,7.59,0.23,8.33c1.61,0,3.21,0,4.82,0
			c-0.13-0.87,0.83-6.44,0.23-6.52c0.91,0.12-2.08,5.43-1.92,5.27c1.42,0.59,2.85,1.18,4.27,1.77c-0.59-4.44-0.66-8.78-0.05-13.22
			c-1.39,0.37-2.79,0.74-4.18,1.1c1.4,0.83,1.85,2.1,1.36,3.79c1.61,0,3.21,0,4.82,0c-0.96-2.57-1.92-5.15-2.88-7.72
			c-0.55-1.46-2.19-2.4-3.67-1.49c-2.78,1.71-4.44,3.86-5.35,7c1.61,0,3.21,0,4.82,0c-0.53-3.59-1.88-17.42-8.26-15.63
			c-5.42,1.52-2.87,12.26-1.82,15.96c0.61,2.16,3.4,2.35,4.57,0.6c3.37-5.06,5.78-10.46,7.31-16.34c0.7-2.71-3.15-4.43-4.57-1.93
			c-3.78,6.67-3.03,14.81-7.08,21.29c1.31-0.17,2.62-0.34,3.93-0.51c-5.57-4.38-4-11.4-2.51-17.42c-1.61,0-3.21,0-4.82,0
			c1.55,6.42,1.95,12.86,1.06,19.41c1.03-0.58,2.05-1.16,3.08-1.75c-4.01-1.37-5.37-5.56-2.65-8.91c-1.42-0.59-2.85-1.18-4.27-1.77
			c0.55,9.15,2.1,18.09,4.74,26.88c0.81,2.69,4.88,2.2,4.91-0.66c0.08-6.8-0.52-13.57-1.94-20.23c-1.54-7.23-4.83-14.16-4.16-21.68
			C56.51,48.69,51.51,48.71,51.23,51.89L51.23,51.89z"/>
	</g>
</g>
<g>
	<g>
		<path class="st4" d="M83.84,58.29c2.85-0.12,4.52-3.7,2.34-5.79c-0.93-0.89-2.62-1.03-3.54,0c-1.56,1.75-1.16,4.39,0.82,5.65
			c2,1.28,4.48,0.19,5.72-1.59c0.73-1.05,0.94-2.4,0.3-3.54c-0.43-0.78-1.28-1.36-2.06-1.76c-1.76-0.91-4.04-1.18-5.5,0.45
			c-0.87,0.98-1.03,2.59,0,3.54c0.95,0.87,2.61,1.04,3.54,0c0.19-0.21,0.16-0.19-0.1,0.05c-0.18,0.12-0.38,0.19-0.6,0.2
			c-0.63,0-0.05,0.02,0.17,0.08c0.17,0.06,0.13,0.04-0.13-0.05c0.12,0.06,0.24,0.13,0.36,0.2c0.12,0.07,0.23,0.14,0.34,0.22
			c0.57,0.43,0.35,0.02-0.66-1.24c0.11-0.42,0.23-0.84,0.34-1.26c-0.05,0.15-0.12,0.29-0.21,0.42c0.18-0.21,0.17-0.21-0.03,0
			c0.23-0.16,0.22-0.16-0.02-0.01c0.1-0.07,0.21-0.11,0.33-0.12c0.56-0.11,0.98,0.22,1.25,0.64c-0.13-0.24-0.12-0.2,0.05,0.13
			c0.14,0.59,0.01,1.1-0.4,1.54c-1.18,0-2.36,0-3.54,0c-0.43-0.42-0.57-1.28-0.33-1.79c0.27-0.57,0.79-0.93,1.52-0.96
			c-1.31,0.05-2.56,1.11-2.5,2.5C81.4,57.1,82.44,58.34,83.84,58.29L83.84,58.29z"/>
	</g>
</g>
<g>
	<g>
		<path class="st5" d="M52.78,49.55c-1.37,7.97-2.74,15.94-4.12,23.91c-0.44,2.55,3.32,4.72,4.57,1.93
			c3.57-8.01,5.88-16.88,0.79-24.77c-1.29-2.01-4.72-1.32-4.66,1.26c0.18,7.96,1.34,15.74,3.49,23.41c0.61,2.19,4.47,2.57,4.82,0
			c1.26-9.14,1.08-18.12-0.64-27.19c-0.52-2.76-5.08-2.14-4.91,0.66c0.26,4.3,3.81,18.63,10.85,15.89
			c4.83-1.88,4.99-12.81,0.13-14.67c-1.18-0.45-2.86,0.51-3.08,1.75c-0.7,4.07-1.19,10.32,3.65,12.22c4.96,1.94,7.19-4.25,7.64-7.94
			c0.34-2.79-4.36-3.41-4.91-0.66c-0.61,3.02-0.6,5.67,0.02,8.69c0.37,1.81,2.96,2.45,4.18,1.1c2.02-2.24,2.84-4.23,2.82-7.25
			c-0.02-2.52-3.36-3.35-4.66-1.26c-2.91,4.67,0.63,9.45,5.64,10.29c5.1,0.86,9.76-1.99,11.42-6.79c1.05-3.05-3.78-4.36-4.82-1.33
			c-0.52,1.61-1.6,2.63-3.25,3.05c-2.13,0.77-3.69-0.13-4.67-2.7c-1.55-0.42-3.11-0.84-4.66-1.26c-0.45,1.24-0.9,2.48-1.36,3.72
			c1.39,0.37,2.79,0.74,4.18,1.1c-0.55-2.01-0.55-4.02-0.02-6.04c-1.64-0.22-3.27-0.44-4.91-0.66c-1.46,0.95-2.05,0.86-1.79-0.26
			c0.01-0.91,0.12-1.8,0.33-2.69c-1.03,0.58-2.05,1.16-3.08,1.75c-0.11-0.04-0.66,4.25-0.86,4.7c-0.38,0.92-0.33,1.06,0.15,0.42
			c0.9-0.72,0.52-1.48-1.13-2.3c-1.76-2.68-2.61-5.67-2.8-8.85c-1.64,0.22-3.27,0.44-4.91,0.66c1.54,8.13,1.77,16.33,0.64,24.53
			c1.61,0,3.21,0,4.82,0c-2.04-7.25-3.14-14.55-3.31-22.08c-1.55,0.42-3.11,0.84-4.66,1.26c4.06,6.3,2.05,13.37-0.79,19.72
			c1.52,0.64,3.05,1.28,4.57,1.93c1.37-7.97,2.74-15.94,4.12-23.91C58.14,47.73,53.33,46.38,52.78,49.55L52.78,49.55z"/>
	</g>
</g>
<g>
	<g>
		<path class="st5" d="M83.47,61.6c2.09,0.62,4.23-0.17,5.62-1.81c1.5-1.78,1.69-4.14,1.48-6.37c-0.12-1.26-0.27-2.44-1.3-3.29
			c-0.9-0.75-2.07-0.86-3.19-0.99c-2.08-0.24-4.24,0.09-5.78,1.63c-2.74,2.74-1.41,9,2.52,9.99c2.77,0.7,3.92-1.97,4.04-4.22
			c0.12-2.28-0.54-4.55-1.7-6.5c-1.13-1.89-3.92-1.44-4.57,0.6c-0.63,1.97-1.42,4.88-0.42,6.83c1.2,2.34,4.07,1.96,6.29,2.01
			c3.22,0.08,3.22-4.92,0-5c-0.66-0.02-2.31,0.19-2.75-0.14c0.38,0.5,0.77,1,1.15,1.49c-0.45-1.09,0.21-2.81,0.55-3.87
			c-1.52,0.2-3.05,0.4-4.57,0.6c0.57,0.96,1.63,3.25,0.97,4.39c0.3-0.3,0.6-0.6,0.9-0.9c-0.1,0.06-0.2,0.11-0.3,0.17
			c0.64-0.08,1.28-0.17,1.93-0.25c0.22,0.04-0.29-0.43-0.4-0.77c-0.09-0.26-0.25-0.68-0.07-0.94c0.35-0.48,2.19-0.28,2.62-0.01
			c-0.3-0.3-0.6-0.6-0.9-0.9c0.23,0.43,0.27,3.74-0.8,3.42C81.7,55.86,80.38,60.69,83.47,61.6L83.47,61.6z"/>
	</g>
</g>
<g>
	<g>
		<path class="st5" d="M75.68,71.42c-3.71,7.43-5.46,15.21-5.14,23.52c0.11,2.82,4.06,3.39,4.91,0.66c1.2-3.84,0.59-7.9,0.4-11.85
			c-0.24-4.91-0.49-9.81-0.73-14.72c-0.13-2.66-4.39-3.58-4.91-0.66c-1.65,9.3-2.4,18.65-2.17,28.09c0.06,2.74,4.26,3.49,4.91,0.66
			c2.53-10.92,3.62-21.99,3.21-33.19c-0.09-2.59-3.25-3.25-4.66-1.26c-3.6,5.07-4.32,11.26-5.04,17.29
			c-0.92,7.71-1.13,15.45-0.77,23.2c0.15,3.2,4.91,3.23,5,0c0.36-13.47-0.03-26.91-1.2-40.33c-0.27-3.18-4.84-3.25-5,0
			C64.09,71,63.7,79.18,63.3,87.36c1.67,0,3.33,0,5,0c0.36-9.52,0.72-19.03,1.08-28.55c0.09-2.27-2.74-3.15-4.27-1.77
			c-3.61,3.28-3.62,8.66-4.03,13.21c-0.63,6.97-0.53,13.95,0.09,20.92c0.28,3.16,4.95,3.27,5,0c0.17-11.08-1.7-21.91-5.62-32.28
			c-0.97-2.57-4.82-2.29-4.91,0.66c-0.43,13.25-0.29,26.5,0.41,39.74c0.14,2.75,4.14,3.48,4.91,0.66c1.64-5.97,2.18-12.05,1.32-18.2
			c-0.55-3.91-1.17-9.22-5.68-10.3c-1.42-0.34-2.57,0.45-3.08,1.75c-2.98,7.64-2.93,15.79,0.17,23.38c0.98,2.41,5.01,2.4,4.91-0.66
			c-0.22-6.78-1.51-13.29-3.98-19.62c-0.8-2.05-4.32-2.68-4.82,0c-0.77,4.09-0.56,7.74,0.94,11.65c1.52-0.64,3.05-1.28,4.57-1.93
			c-2.11-4.77-4.59-9.3-7.46-13.66c-1.31,1.01-2.62,2.02-3.93,3.03c0.42,0.35,0.84,0.7,1.27,1.05c2.46,2.04,6.01-1.48,3.54-3.54
			c-0.42-0.35-0.84-0.7-1.27-1.05c-2.03-1.69-5.6,0.49-3.93,3.03c2.87,4.36,5.35,8.89,7.46,13.66c1.13,2.56,5.59,0.72,4.57-1.93
			c-1.16-3.02-1.55-5.75-0.94-9c-1.61,0-3.21,0-4.82,0c2.32,5.93,3.6,11.92,3.81,18.29c1.64-0.22,3.27-0.44,4.91-0.66
			c-2.81-6.86-2.87-13.81-0.17-20.72c-1.03,0.58-2.05,1.16-3.08,1.75c2.59,0.62,2.42,8.95,2.45,11c0.05,3.88-0.56,7.62-1.58,11.34
			c1.64,0.22,3.27,0.44,4.91,0.66c-0.7-13.24-0.83-26.49-0.41-39.74C59,59.78,57.36,60,55.73,60.22c3.77,9.97,5.61,20.29,5.45,30.95
			c1.67,0,3.33,0,5,0c-0.45-5.07-0.65-10.13-0.46-15.22c0.16-4.26-0.49-12.27,2.93-15.37c-1.42-0.59-2.85-1.18-4.27-1.77
			c-0.36,9.52-0.72,19.03-1.08,28.55c-0.12,3.22,4.85,3.2,5,0c0.39-8.18,0.79-16.36,1.18-24.54c-1.67,0-3.33,0-5,0
			c1.16,13.42,1.56,26.87,1.2,40.33c1.67,0,3.33,0,5,0c-0.3-6.51-0.22-13.01,0.38-19.5c0.58-6.24,1.02-13.2,4.76-18.47
			c-1.55-0.42-3.11-0.84-4.66-1.26c0.39,10.77-0.6,21.37-3.03,31.87c1.64,0.22,3.27,0.44,4.91,0.66c-0.21-9,0.43-17.89,1.99-26.76
			c-1.64-0.22-3.27-0.44-4.91-0.66c0.21,4.29,0.43,8.59,0.64,12.88c0.2,4,1.08,8.5-0.13,12.36c1.64,0.22,3.27,0.44,4.91,0.66
			c-0.29-7.41,1.13-14.36,4.45-21C81.43,71.07,77.12,68.54,75.68,71.42L75.68,71.42z"/>
	</g>
</g>
</svg>
