<?xml version="1.0" encoding="utf-8"?>
<!-- Generator: Adobe Illustrator 23.0.1, SVG Export Plug-In . SVG Version: 6.00 Build 0)  -->
<svg version="1.1" id="Layer_1" xmlns="http://www.w3.org/2000/svg" xmlns:xlink="http://www.w3.org/1999/xlink" x="0px" y="0px"
	 viewBox="0 0 128.24 147.56" style="enable-background:new 0 0 128.24 147.56;" xml:space="preserve">
<style type="text/css">
	.st0{fill-rule:evenodd;clip-rule:evenodd;fill:#FFDD6F;}
	.st1{fill:#231F20;}
	.st2{fill:#FFDD6F;}
</style>
<path class="st0" d="M127.71,109.17c-0.01-1.31,0.03-2.25,0.09-3.74c0.03-0.33,0.06-0.66,0.09-0.99c-0.15-0.73-0.33-2.91-0.13-3.87
	c0.04-0.24,0.09-0.48,0.13-0.72c-0.04-0.78-0.15-1.64,0-2.39c0.1-0.48-0.17-2.42-0.27-2.92c0.04-0.42,0.09-0.84,0.13-1.26
	c-0.01-0.48-0.03-0.96-0.04-1.44c0.09-0.61,0.18-1.23,0.27-1.84c0.11-0.62-0.1-1.44-0.18-1.94c0.03-0.29,0.06-0.57,0.09-0.86
	c-0.12-0.6-0.03-2.89,0.14-3.6c0.15-0.62-0.04-1.2-0.14-1.71c-0.18-1-0.04-2.16-0.18-3.19c-0.03-0.22-0.16-0.54-0.09-0.86
	c0.16-0.79,0.22-1.25,0.18-2.16c-0.04-0.18-0.09-0.36-0.13-0.54c0.17-1.13,0.72-3.18,0.54-4.19c-0.1-0.59-0.04-1.54-0.09-1.84
	c-0.16-0.99-0.29-2.31-0.18-3.2c-0.06-0.79-0.12-1.59-0.18-2.38c-0.08-3.04-0.05-5.55,0-8.15c0.02-0.88-0.12-1.43,0-2.07
	c0.08-0.4-0.25-0.68,0-0.85c0-0.07,0-0.15,0-0.22c-0.1,0.06-0.03-0.01-0.09,0.09c-0.01,0-0.03,0-0.04,0
	c0.09-0.62,0.07-2.33-0.13-3.06c0-0.78,0-1.56,0-2.34c-0.04-0.14-0.09-0.27-0.13-0.41c0.09-0.39-0.01-0.82-0.04-1.35
	c-0.09-1.49-0.05-3.21,0.04-4.41c0.07-0.87,0.13-2,0.09-2.66c0.06-0.3,0.12-0.6,0.18-0.9c-0.04-0.22-0.2-0.35-0.27-0.5
	c-0.03-0.21-0.06-0.42-0.09-0.63c-0.2-0.44-0.89-0.61-1.31-0.85c-0.91-0.54-1.71-1.15-2.66-1.71c-1.34-0.79-2.72-1.8-4.05-2.61
	c-0.58-0.35-1.26-0.49-1.85-0.81c-0.5-0.36-0.99-0.72-1.48-1.08c-0.33-0.12-0.66-0.24-0.99-0.36c-0.99-0.57-1.9-1.05-2.93-1.62
	c-0.47-0.27-0.88-0.79-1.35-1.08c-0.28-0.17-0.63-0.15-0.9-0.31c-0.43-0.27-0.89-0.65-1.35-0.9c-0.51-0.28-1.02-0.39-1.53-0.68
	c-0.35-0.2-0.67-0.58-0.99-0.81c-0.38-0.26-0.89-0.45-1.26-0.68c-0.62-0.38-1.46-0.46-2.12-0.77c-0.72-0.34-1.38-0.91-2.12-1.21
	c-0.7-0.29-1.83-0.57-2.38-0.99c-0.21-0.16-0.43-0.4-0.68-0.54c-0.21-0.06-0.42-0.12-0.63-0.18c-1.28-0.76-2.36-1.81-3.65-2.61
	c-0.52-0.32-1.12-0.41-1.71-0.68c-0.63-0.28-1.38-0.68-2.03-1.03c-1.06-0.58-2.08-1.47-3.11-2.07c-1.49-0.87-2.98-1.68-4.36-2.65
	c-0.07-0.05-0.95-0.48-0.99-0.5c-0.15-0.02-0.3-0.03-0.45-0.05C80,9.08,79.61,8.62,79.2,8.37c-0.79-0.48-1.75-0.63-2.56-1.13
	c-0.82-0.5-1.54-1.26-2.38-1.71c-0.17-0.03-0.33-0.06-0.5-0.09c-0.36-0.21-0.72-0.42-1.08-0.63c-0.27-0.09-0.54-0.18-0.81-0.27
	c-0.41-0.26-0.8-0.7-1.21-0.94c-2.18-1.29-4.38-2.37-6.57-3.6c-0.6,0-0.89,0.44-1.3,0.67c-0.33,0.1-0.66,0.21-0.99,0.31
	c-0.28,0.2-0.57,0.39-0.85,0.59c-0.19,0.06-0.39,0.12-0.58,0.18c-0.2,0.14-0.36,0.4-0.58,0.54c-0.46,0.28-1,0.33-1.48,0.59
	c-1.1,0.58-2.26,1.22-3.33,1.89c-1,0.63-1.99,1.4-3.02,2.02c-0.85,0.52-1.76,0.84-2.61,1.39c-0.46,0.3-0.88,0.87-1.35,1.12
	C47.2,9.73,46.4,9.9,45.63,10.3c-0.46,0.25-0.96,0.7-1.4,0.99c-0.76,0.51-1.53,0.74-2.43,1.17c-0.54,0.26-1.11,0.81-1.62,1.17
	c-0.69,0.49-1.52,0.72-2.25,1.17c-0.93,0.57-1.86,1.38-2.83,1.94c-0.48,0.27-0.94,0.31-1.48,0.54c-0.48,0.31-0.96,0.63-1.44,0.95
	c-1.33,0.63-2.63,0.99-3.92,1.67c-0.29,0.15-0.61,0.51-0.9,0.67c-0.4,0.23-0.79,0.33-1.17,0.59c-0.35,0.29-0.69,0.57-1.04,0.85
	c-0.59,0.33-1.11,0.59-1.62,0.94c-0.13,0.09-0.44,0.06-0.5,0.09c-0.81,0.46-1.74,0.95-2.57,1.4c-0.46,0.18-0.93,0.36-1.4,0.54
	c-0.32,0.24-0.47,0.69-0.85,0.9c-1.43,0.78-2.83,1.5-4.14,2.34c-0.46,0.29-0.96,0.35-1.49,0.58c-0.22,0.1-0.36,0.34-0.54,0.45
	c-0.38,0.23-0.76,0.3-1.12,0.54c-0.31,0.27-0.63,0.54-0.94,0.81c-0.44,0.28-0.91,0.42-1.35,0.72c-0.33,0.33-0.66,0.66-0.99,0.99
	c-0.23,0.15-1.09,0.7-1.26,0.76c-0.17,0.03-0.33,0.06-0.49,0.09c-0.95,0.6-1.89,1.2-2.84,1.8c-0.55,0.29-1.11,0.57-1.66,0.86
	c-0.23,0.2-0.32,0.5-0.59,0.68c-0.07,1.74-0.07,3.32-0.36,4.82c-0.16,0.84,0.18,1.78,0.09,2.47c-0.23,1.8,0.2,4.35,0.05,6.12
	c0.03,0.17,0.06,0.33,0.09,0.5c0.13,0.69-0.07,1.44,0.04,2.07C0.68,52.98,0.63,53.49,0.59,54c0.2,1.3,0.03,2.98-0.18,4.09
	c-0.09,0.49,0.1,1.03,0.18,1.44c-0.02,0.56-0.03,1.11-0.05,1.67c0.04,0.14,0.23,0.45,0.18,0.68c-0.11,0.46-0.1,1-0.23,1.71
	c-0.04,0.26,0.12,0.49,0.09,0.58c-0.3,0.94-0.47,2.17-0.41,3.15c0.01,0.1,0.13,0.2,0.09,0.41C0.05,68.85,0,70.41,0,71.41
	c0,0.86,0.18,1.91,0.27,2.61c-0.02,1.05-0.03,2.1-0.05,3.15c0.21,0.96,0.23,1.47,0.41,2.39c-0.04,0.27-0.09,0.54-0.14,0.81
	c0.17,1.01,0.03,2.36,0,3.42c0.08,0.42,0.15,0.84,0.23,1.26c-0.02,0.29-0.03,0.57-0.04,0.86c0.08,0.37,0.29,1.11,0.23,1.58
	c-0.19,1.3-0.18,2.61-0.09,3.83c-0.09,0.34-0.18,0.69-0.27,1.04c0.02,0.55,0.18,1.19,0.09,1.84c-0.03,0.19-0.12,0.56-0.09,0.72
	c0.06,0.12,0.12,0.24,0.18,0.36c-0.04,0.21-0.21,1.31-0.13,1.71c0.04,0.2,0.25,1.35,0.36,1.48c-0.06,0.06-0.12,0.12-0.18,0.18
	c0.25,0.37-0.01,3.17-0.05,3.83c-0.06,1.1,0.17,1.83,0.09,2.92c-0.04,0.52,0.3,1.26-0.09,1.71c0.08,0.1,0.06,0.1,0.23,0.13
	c-0.06,0.1,0.01,0.03-0.09,0.09c0.14,0.83-0.43,2.82,0.86,2.83c0.07,0.38,0.45,0.36,0.72,0.54c0.24,0.15,0.58,0.57,0.72,0.68
	c0.18,0.13,0.81,0.27,0.94,0.31c0.14,0.12,0.27,0.24,0.41,0.36c0.12,0.03,0.24,0.06,0.36,0.09c0.1,0.1,0.07,0.27,0.18,0.36
	c0.25,0.2,0.52,0.22,0.81,0.4c0.21,0.13,0.41,0.47,0.63,0.58c0.09,0,0.18,0,0.27,0c0.03,0.08,0.06,0.15,0.09,0.23
	c0.18,0.05,0.36,0.09,0.54,0.13c0.32,0.19,0.65,0.61,0.99,0.81c1.35,0.82,2.65,1.53,3.96,2.07c0.15,0.09,0.29,0.43,0.5,0.58
	c0.17,0.13,0.6,0.24,0.68,0.31c0.43,0.45,1.09,0.94,1.62,1.26c0.33,0.12,0.66,0.24,0.99,0.36c0.91,0.59,1.91,1.21,2.79,1.84
	c0.45,0.32,1.06,0.46,1.57,0.68c1.13,0.48,2.33,1.13,3.38,1.71c0.33,0.18,0.66,0.18,0.99,0.36c0.52,0.29,0.94,0.85,1.44,1.17
	c0.76,0.48,1.52,0.95,2.25,1.39c0.3,0.13,0.6,0.27,0.9,0.41c0.09,0.12,0.18,0.24,0.27,0.36c0.17,0.03,0.33,0.06,0.5,0.09
	c0.34,0.22,0.56,0.66,0.94,0.85c0.53,0.28,1.07,0.31,1.58,0.59c0.21,0.12,0.39,0.41,0.58,0.54c0.3,0.12,0.6,0.24,0.9,0.36
	c0.46,0.27,0.84,0.74,1.35,0.99c0.89,0.43,1.96,0.79,2.88,1.35c0.9,0.55,1.78,1.35,2.66,1.94c0.39,0.19,0.78,0.39,1.17,0.58
	c0.51,0.35,0.99,1.03,1.53,1.31c0.14,0.03,0.27,0.06,0.41,0.09c0.29,0.25,0.62,0.65,0.94,0.85c0.15,0.03,0.3,0.06,0.45,0.09
	c0.3,0.17,0.6,0.5,0.9,0.68c0.33,0.2,0.57,0.11,0.85,0.27c0,0.03,0,0.06,0,0.09c3.05,1.46,5.77,3.1,8.77,4.73
	c0.14,0.08,0.11,0.03,0.14,0.22c0.43-0.09,1.68,0.93,2.11,1.17c0.13,0.07,0.3,0.03,0.36,0.04c0.44,0.4,0.95,0.78,1.39,1.17
	c0.06,0.06,1.1,0.33,1.17,0.36c0.25,0.1,0.43,0.46,0.63,0.58c0.19,0.12,0.55,0,0.72,0.09c0.08,0.04,0.03,0.17,0.09,0.22
	c0.33,0.15,0.66,0.3,0.99,0.45c0.28,0.18,0.56,0.46,0.86,0.68c0.64-0.04,0.75-0.65,1.26-0.86c1.26-0.5,2.27-1.12,3.29-1.84
	c0.44-0.31,0.91-0.42,1.26-0.81c0.03,0.04,0.06,0.09,0.09,0.13c0.25-0.2,0.45-0.55,0.72-0.72c0.4-0.12,0.81-0.24,1.21-0.36
	c0.33-0.16,0.57-0.55,0.86-0.72c0.19-0.11,0.33-0.05,0.54-0.13c0.31-0.12,0.54-0.36,0.81-0.49c0-0.03,0-0.06,0-0.09
	c0.23-0.33,0.68-0.59,1.04-0.81c0.08-0.05,0.07-0.22,0.13-0.27c0.32-0.24,0.62,0.03,0.81-0.36c0.13,0.04,0.09,0.03,0.18,0.09
	c0.38-0.48,1.29-0.8,1.93-1.12c0.18-0.09,0.46-0.04,0.58-0.18c0.08-0.08-0.01-0.21,0.09-0.27c0.28-0.18,1.43-0.8,1.71-0.86
	c0-0.04,0-0.09,0-0.13c0.13-0.17,0.87-0.94,1.04-0.99c0.35-0.11,0.86-0.03,1.21-0.27c0.37-0.25,0.93-0.67,1.26-0.81
	c0.69-0.29,1.59-0.32,2.03-0.76c0.1-0.08,0.08-0.08,0.09-0.27c0.06,0.04,0.12,0.09,0.18,0.13c0.61-0.86,2.04-1.18,2.92-1.66
	c0-0.03,0-0.06,0-0.09c0.39-0.49,1.08-0.57,1.62-0.86c0.61-0.32,1.1-0.84,1.67-1.17c0.32-0.1,0.63-0.21,0.94-0.31
	c0.38-0.2,0.67-0.58,1.04-0.77c0.29-0.12,0.57-0.24,0.86-0.36c1.11-0.93,2.42-1.83,3.64-2.61c0.27-0.1,0.54-0.21,0.81-0.32
	c0.42-0.29,0.86-0.92,1.3-1.12c0.31-0.14,0.51-0.1,0.77-0.27c0.29-0.27,0.57-0.54,0.85-0.81c0.73-0.54,1.64-0.86,2.38-1.35
	c0.15-0.1,0.3-0.38,0.45-0.45c0.37-0.18,0.76-0.14,1.12-0.27c0.46-0.17,0.79-0.59,1.17-0.81c0.95-0.55,1.9-0.88,2.83-1.44
	c0.96-0.57,1.8-1.41,2.7-2.02c0.42-0.28,0.91-0.34,1.35-0.59c0.25-0.14,0.47-0.43,0.72-0.58c0.25-0.09,0.51-0.18,0.76-0.27
	c0.55-0.31,1.09-0.88,1.67-1.17c0.57-0.29,1.13-0.47,1.67-0.81c0.29-0.18,0.72-0.6,1.08-0.67c0.42-0.08,2.04-0.51,2.43-0.77
	c0.72-0.47,1.29-1.17,2.02-1.62c0.89-0.54,1.91-0.92,2.48-1.8C128.11,109.48,127.93,109.32,127.71,109.17z"/>
<g>
	<g>
		<path class="st1" d="M65.33,81.33c3.22,0,3.22-5,0-5C62.12,76.33,62.11,81.33,65.33,81.33L65.33,81.33z"/>
	</g>
</g>
<g>
	<g>
		<path class="st2" d="M67.99,79.48c-0.07-2.8-1.37-5.04-3.56-6.72c-0.72-0.55-1.78-0.36-2.52,0c-1.32,0.65-1.97,2.09-1.88,3.51
			c0.09,1.53,1.11,2.76,2.42,3.48c1.11,0.6,2.46,1.05,3.66,1.42c1.46,0.44,3.18,0.36,4.33-0.77c2.51-2.49,0.33-6.27-2.75-6.7
			c-2.76-0.39-5.58,1.22-6.8,3.71c-0.59,1.21-0.33,2.7,0.9,3.42c1.1,0.64,2.83,0.32,3.42-0.9c0.26-0.54,0.55-0.97,1.12-1.2
			c0.33-0.13,0.26-0.02,0.49-0.1c0.08-0.02,0.15-0.02,0.21,0.01c-0.81-0.42-0.56-1.15,0.75-2.19c-0.59-0.35-1.5-0.51-2.15-0.75
			c-0.21-0.08-0.47-0.21-0.67-0.26c-0.3-0.1-0.39-0.15-0.26-0.16c0.48,0.62,0.39,1.23-0.27,1.8c-0.84,0-1.68,0-2.52,0
			c0.72,0.55,1.06,1.52,1.08,2.4C63.06,82.69,68.06,82.71,67.99,79.48L67.99,79.48z"/>
	</g>
</g>
</svg>
