<?xml version="1.0" encoding="utf-8"?>
<!-- Generator: Adobe Illustrator 23.0.1, SVG Export Plug-In . SVG Version: 6.00 Build 0)  -->
<svg version="1.1" id="Layer_1" xmlns="http://www.w3.org/2000/svg" xmlns:xlink="http://www.w3.org/1999/xlink" x="0px" y="0px"
	 viewBox="0 0 156.7 90.41" style="enable-background:new 0 0 156.7 90.41;" xml:space="preserve">
<style type="text/css">
	.st0{fill-rule:evenodd;clip-rule:evenodd;fill:#333333;}
</style>
<path class="st0" d="M43.12-32.78c1.09,0.04,2.19,0.07,3.28,0.09c0.29-0.05,0.46-0.11,0.81-0.09c1.33,0.07,2.47,0.14,3.88,0
	c0.49-0.05,1.18,0.03,1.97,0.14c0.42-0.03,0.84-0.06,1.27-0.09c0.85,0.03,1.7,0.06,2.56,0.09c0.42-0.02,0.84-0.06,1.26-0.08
	c0.39,0.06,0.78,0.12,1.17,0.18c0.72-0.05,1.44-0.09,2.16-0.13c0.7-0.11,1.73,0.01,2.43,0.09c0.21-0.03,0.42-0.06,0.63-0.1
	c0.45,0,0.9,0,1.35,0c0.25-0.06,0.87-0.16,1.4-0.23c0.36,0.03,0.72,0.06,1.07,0.09c0.42-0.03,0.85-0.06,1.27-0.09
	c0.65-0.07,1.82,0.17,2.33,0.27c0.9-0.01,1.8-0.03,2.7-0.04c0.82,0.09,2.22,0.01,2.93-0.14c0.22,0.02,0.45,0.03,0.67,0.05
	c0.9-0.12,2.22-0.07,3.06-0.09c0.29-0.01,0.55,0.17,0.77,0.22c0.3,0.07,1.07,0.13,1.43,0.18c0.81,0.12,2.09,0.02,2.98-0.18
	c0.28,0.02,0.57,0.03,0.85,0.05c0.81,0.11,1.89,0.02,2.39-0.05c0.36-0.04,0.98,0.13,1.25,0.18c1.11,0.22,3.13,0.13,4.15-0.14
	c0.31,0.01,0.63,0,0.94,0c0.68-0.01,1.32-0.08,2.12,0.05c0.54-0.03,1.08-0.06,1.62-0.09c0.66,0.11,1.55-0.02,2.38,0
	c0.77,0.02,1.49,0.11,2.03,0.04c0.58,0.08,1.16,0.16,1.75,0.23c0.92,0.18,2.1-0.02,3.15,0.08c0.3-0.05,0.6-0.12,0.9-0.18
	c0.8-0.12,1.81,0.12,2.7-0.04c0.21-0.04,0.33,0.07,0.45,0.08c0.78,0,1.56,0,2.34,0c0.62-0.11,1.65-0.37,2.25-0.27
	c0.36-0.02,0.72-0.04,1.08-0.05c1.27-0.06,3.77,0.39,4.01,1.35c-0.23,0.13-0.13,0.13-0.05,0.31l-0.18,0
	c0.08,0.12,0.15,0.24,0.22,0.36l-0.09,0c-0.04-0.01-0.09-0.03-0.13-0.05l0,0.05c0.26,0.24,0.41,1.88,0.27,2.61
	c-0.21,1.11,0.24,2.49,0.09,4.01c-0.01,0.14,0.09,0.45,0.1,0.58c-0.05,0.39-0.09,0.78-0.14,1.17c0.02,0.42,0.06,0.84,0.09,1.26
	c0.03,1.63-0.04,2.96,0.27,4.24c0.21,0.9-0.35,1.74-0.23,2.65c0.07,0.48-0.03,1-0.04,1.39c-0.03,0.87,0.13,2-0.09,2.97
	c-0.23,1.02,0.05,2.12-0.13,3.11c0.17,0.05,0.13,0.07,0.22,0.18c-0.2,0.6,0.16,1.18-0.09,2.11c-0.24,0.91-0.32,3.59-0.13,4.41
	c0.08,0.37-0.2,0.67-0.18,0.81c0,0.01,0.15,0.28,0.17,0.36c0.2,0.84,0.1,1.52-0.05,2.16c0.13,0.02,0.07-0.02,0.09,0.18
	c0.18,0.42-0.16,1.09-0.08,1.44c0.17,0.93,0.03,1.87,0.09,2.7c0.07,1.09,0.13,2.76,0.45,3.97c-0.02,0.25-0.02,0.5-0.04,0.76
	c-0.07,0.38,0.1,0.69,0.18,0.99c0.15,0.59-0.17,1.91-0.27,2.43c0.03,0.24,0.06,0.48,0.09,0.72c-0.03,0.51-0.15,1.17-0.31,1.53
	c0.11,0.85-0.03,1.89-0.18,2.74c-0.14,0.8,0.23,2.17,0.4,2.97c0,0.26,0.01,0.51,0,0.77c0.29,1.54,0,2.87-0.18,4.59
	c0.03,0.25,0.07,0.51,0.09,0.76c-0.04,0.62-0.09,1.23-0.13,1.84c-0.02,0.21,0.09,0.38,0.05,0.59l0.04,0
	c0.02-0.01,0.03-0.03,0.05-0.04c0.16,0.71-0.12,1.28-0.01,1.93c0.06,0.33,0.18,0.84,0.09,1.26c-0.08,0.37-0.3,0.65-0.36,1.08
	c0.06,0.57,0.12,1.14,0.18,1.71c-0.01,0.54-0.03,1.08-0.04,1.62c0.08,0.6,0.14,1.84-0.05,2.43c0.3,0.91,0.28,3.75,0.09,4.63
	c-0.09,0.5,0,2.22,0.09,2.66c0.14,0.61-0.14,2.05-0.27,2.7c0.02,0.82,0.04,1.65,0.05,2.47c-0.08,0.44,0.1,1.37,0,1.8
	c-0.02,0.12-0.15,0.34-0.09,0.59c0.08,0.35,0.21,0.96,0.14,1.44c-0.05,0.31,0.08,0.71,0.05,1.08c-0.13,1.69-0.06,3.46,0.23,4.86
	c0.11,0.52-0.25,0.97-0.22,1.35c0.06,1.02-0.02,2.18-0.09,3.6c-0.08,1.46-0.15,2.91,0.13,4.36c0.12,0.58-0.02,1.38,0.09,1.98
	c-0.02,0.24-0.02,0.48-0.04,0.72c0.17,1.02,0.03,1.76,0.22,2.93c0.2,1.21-0.64,2.13-0.31,3.55c0.3,1.34-0.15,3.06,0.04,4.5
	c0.07,0.51-0.13,1.02-0.04,1.58c0.13,0.83,0.16,2.53-0.09,3.41c0.03,0.21,0.06,0.43,0.09,0.64c0.03,0.45-0.18,0.91-0.27,1.25
	c-0.11,0.4,0.13,0.66,0.04,1.08c-0.3,1.53-0.17,3.44,0.05,4.86c0.02,0.87,0.03,1.74,0.05,2.61c-0.05,0.08-0.09,0.15-0.14,0.23
	c-0.01,0.7,0.24,1.54,0.36,2.07c-0.02,0.38-0.03,0.75-0.05,1.13c0.18,1.17,0.15,3.09-0.04,4.27c0.08,0.54,0.15,1.08,0.22,1.62
	c0.12,0.73-0.26,1.75-0.08,2.57c0.13,0.63,0.39,1.75,0.27,2.38c-0.11,0.57,0.07,1.13,0,1.53c-0.1,0.64-0.17,1.56-0.26,2.21
	c-0.12,0.8-0.04,1.83-0.73,2.16c-0.4,0.22-0.7-0.02-1.21,0.04c-0.36,0.04-0.71,0.11-1.08,0.18c-0.35-0.04-0.69-0.06-1.04-0.09
	c-1.44,0.12-3.62,0.08-5.31,0.27c-0.18-0.05-0.36-0.1-0.54-0.13c-0.49-0.11-2.3,0.04-2.7,0.13c-0.16-0.05-0.33-0.09-0.49-0.13
	c-0.69-0.14-1.49-0.05-2.07,0.04c-0.09-0.12-0.09-0.14-0.27-0.18c-0.09,0.15-0.06,0.14-0.27,0.18c-0.07-0.15-0.07-0.13-0.23-0.19
	c-0.07,0.17,0.02,0.1-0.18,0.14c0,0-1.97-0.11-2.07-0.1c-0.51,0.07-0.95,0.4-1.39,0.14c-0.07,0.17-0.09,0.14-0.32,0.13
	c-0.14-0.14-0.33,0.07-0.76,0c-0.53-0.07-1.68,0.1-2.21-0.08c-0.13,0.13-0.69,0.19-1.03,0.09c-0.22-0.06-0.94,0.01-1.53,0
	c-0.08-0.14-0.05-0.13-0.23-0.18c-0.05,0.06-1.34,0.31-1.62,0.18c-0.04-0.06-0.09-0.12-0.13-0.18c0,0-0.39,0.19-0.59,0.14
	c-0.51-0.16-1.93-0.02-2.34-0.22c-0.1-0.09-0.05-0.09-0.22-0.14c-0.22,0.29-1.28,0.22-1.76,0.14c-0.33-0.07-1.58-0.35-1.79-0.27
	c-0.46,0.17-1.88,0.23-2.21,0.09c-0.05,0.15,0.01,0.06-0.09,0.13c-0.06-0.1,0.01-0.02-0.09-0.09c-0.07,0.18-0.09,0.14-0.32,0.14
	c-0.44,0.23-0.93,0.09-1.3,0.13c-0.69,0.06-1.38,0.31-2.07,0.17c-0.6-0.1-0.95-0.19-1.4-0.08c-0.03-0.06-0.06-0.12-0.09-0.18
	c-0.04,0.01-0.09,0.02-0.13,0.04c-0.05,0.04-0.09,0.09-0.14,0.13c-0.29-0.12-0.46-0.08-0.9,0.05c-0.45-0.1-0.86-0.3-1.21-0.41
	c-0.02,0.21,0.09,0.14-0.14,0.18c-0.01-0.05-0.02-0.09-0.04-0.14c-0.14,0.12-1.08,0.07-1.53,0.05c-0.04-0.03-0.09-0.06-0.13-0.09
	c-0.12,0.11-0.28,0.12-0.5,0.14c-0.04-0.2-0.03-0.18-0.22-0.23c-0.05,0.03-0.09,0.06-0.14,0.09c0.03,0.05,0.06,0.09,0.09,0.14
	c-0.05,0-0.09-0.01-0.14-0.01l-0.22,0c-0.06-0.16-0.01-0.12-0.18-0.18c-0.21,0.2-1.1,0.23-1.58,0.23c0.01-0.06,0.01-0.12,0.01-0.18
	l-0.14,0c-0.17,0.2-0.36,0.15-0.72,0.13c-0.06-0.18-0.04-0.16-0.27-0.18c-0.01,0.04-0.03,0.09-0.04,0.13l0-0.04
	c-0.03-0.05-0.06-0.09-0.09-0.14c-0.15,0.11-0.18,0.17-0.45,0.19c-0.07-0.12-0.05-0.12-0.18-0.18c-0.29,0.28-1.47,0.04-1.8,0l0,0.04
	c0.12,0.07,0.07,0.01,0.13,0.14c-0.12,0.03-0.24,0.05-0.36,0.08c-0.05-0.11-0.06-0.1-0.13-0.18c-0.36,0.19-0.92,0.31-1.31,0.14
	c-0.07,0.17-0.02,0.14-0.23,0.18c-0.18-0.15-0.41-0.11-0.67-0.09l0,0.18c-0.12-0.15-0.11-0.2-0.41-0.23l0,0.09
	c0.03,0.05,0.06,0.09,0.09,0.14c-0.16,0-0.33-0.01-0.49,0c-0.15,0.03-0.2-0.06-0.36-0.14c-0.01,0.13,0.05,0.09-0.09,0.18
	c-0.14-0.09-0.12-0.06-0.32-0.05c-0.01-0.04-0.03-0.09-0.04-0.13c-0.34,0.18-0.8,0.19-1.22,0l0,0.04c-0.1,0.1-0.06,0.12-0.22,0.18
	c-0.15-0.02-0.3-0.04-0.45-0.04l0-0.23c-0.08,0.02-0.15,0.03-0.23,0.05c-0.09,0.09-0.02,0.07-0.18,0.13
	c-0.42-0.12-0.92-0.24-1.3-0.37c-0.1-0.03-0.63,0.11-0.85,0.05c-0.1-0.02-0.17,0.08-0.32,0.09c-0.77,0.03-1.68,0.28-2.12,0.04
	c-0.07,0.14-0.02,0.1-0.22,0.13c-0.07-0.14-0.09-0.12-0.22-0.18l0,0.04l0.04,0l0,0.09c-0.06,0.02-0.12,0.03-0.18,0.05
	c-0.18-0.48-0.92,0-1.17-0.05c-0.08-0.06-0.15-0.12-0.22-0.18c-0.06,0.01-0.06,0.09-0.1,0.13c-0.05,0.05-0.09,0.04-0.09,0.04
	c-0.06-0.07,0.05-0.05-0.09-0.13c-0.27,0.17-1.15,0.28-1.48,0.14c-0.06-0.07-0.05-0.08-0.13-0.14c-0.21,0.14-0.74,0.03-1.04-0.05
	c0.02,0.05,0.03,0.09,0.04,0.14c-0.12,0.03-0.24,0.06-0.36,0.08c-0.06-0.08-0.11-0.19-0.17-0.27c-0.31,0.06-1.09,0.2-1.31,0.09
	c-0.17-0.09-0.15-0.21-0.49-0.22c-0.03,0.04-0.06,0.09-0.09,0.13c-0.09-0.04-0.18-0.09-0.27-0.14c-0.17,0.35-0.85,0.23-1.13,0.09
	c-0.01,0.05-0.03,0.09-0.04,0.14c-0.23-0.22-0.26,0.1-0.59-0.05c-0.38-0.16-0.45-0.05-0.94,0c-0.02-0.07-0.03-0.15-0.05-0.22
	c-0.31,0.02-0.27,0.11-0.49,0.18c-0.32-0.05-0.63-0.08-0.95-0.13c-0.44,0.19-1.16,0.11-1.75,0.27c-0.5-0.01-0.99-0.03-1.49-0.04
	c-0.15,0.03-0.4,0.17-0.63,0.13l-0.54-0.17c-0.03,0.06-0.06,0.12-0.09,0.18c-0.12,0.06-0.54,0.07-0.72,0.09
	c-0.02-0.06-0.03-0.12-0.04-0.18l-0.09,0c-0.11,0.18-0.19,0.19-0.5,0.18c-0.2-0.15-0.34,0.01-0.63,0.09l0-0.04
	c0.03-0.04,0.14-0.05,0.04-0.09c-0.06-0.07-0.03-0.05-0.13-0.09l0,0.04c-0.02,0.06-0.03,0.12-0.05,0.18
	c-0.38,0.03-0.25,0.01-0.63-0.04c-0.06,0.07-0.03,0.04-0.13,0.09c-0.06-0.1-0.12-0.13-0.14-0.14c-0.03,0.06-0.06,0.12-0.09,0.18
	c-0.76,0.02-1.53,0.04-2.29,0.05c-0.3-0.08-0.63-0.33-1.03-0.36c-0.09,0.14-0.07,0.14-0.19,0.13c-0.2-0.09-0.52-0.06-0.76-0.13
	l0-0.14c-0.04-0.01-0.09-0.03-0.13-0.04c-0.05,0.06-0.09,0.12-0.14,0.18c-0.39-0.19-1.01,0.08-1.44-0.09
	c-0.18-0.08-0.28-0.17-0.31-0.41c-0.43-0.91,0-2.25-0.13-3.06c-0.23-1.32-0.24-3.02,0-4.23c0.1-0.55-0.13-1.49-0.22-2.07
	c-0.14-0.82,0.03-2.16-0.14-3.2c-0.05-0.84-0.09-1.68-0.14-2.52c0.06-0.42,0.12-0.84,0.18-1.26c-0.14-1.05-0.18-2.41,0-3.6
	c-0.06-0.73-0.12-1.47-0.18-2.2c0.16-1.02,0.33-2.04,0.5-3.07c-0.01-0.39-0.03-0.78-0.05-1.17c0.19-1.32,0.25-3.3,0.05-4.5
	c-0.02-0.12,0.14-0.31,0.09-0.54c-0.32-1.58-0.23-3.23-0.5-4.63c0.03-0.85,0.06-1.71,0.09-2.56c-0.07-1.07-0.19-3.87,0.04-4.82
	c-0.03-0.07-0.06-0.15-0.09-0.22c-0.02-0.29-0.06-1.84,0.01-2.07c0.05-0.21,0.23-0.7,0.22-0.94c-0.02-0.49,0.15-0.71,0.18-1.17
	c-0.04-0.08-0.08-0.15-0.13-0.23c-0.02-0.13,0.08-0.16,0.09-0.22c0.1-0.39,0-1,0.05-1.31c0.08-0.41-0.33-1.08-0.27-1.53
	c0.11-0.78,0.22-2.11,0.32-2.74c0.11-0.69-0.02-1.41-0.09-1.8c-0.13-0.6,0.05-2.35,0.18-2.79c-0.17-0.6-0.31-1.21-0.36-1.67
	c0.03-0.15,0.06-0.3,0.08-0.45c-0.07-0.21-0.14-0.42-0.23-0.63c-0.05-0.33,0.28-1.57,0.14-2.16c-0.08-0.33-0.37-1.23-0.31-1.76
	c0.11-1.07,0.4-2.35,0.22-3.68c-0.15-1.16,0-2.45-0.22-3.61c0.01-0.81,0.03-1.62,0.04-2.43c-0.41-2-0.21-4.73,0.13-6.83
	c0.12-0.71,0.04-1.87,0.14-2.75c0.06-0.63-0.3-1.06-0.14-1.66c0.22-0.81,0.12-2.2,0.13-3.2l-0.04-0.99
	c0.36-1.43-0.07-3.38,0.13-4.99c0.05-0.45-0.19-0.76-0.22-1.13c0.04-0.33,0.08-0.66,0.13-0.99c-0.03-0.58-0.06-1.17-0.09-1.75
	c0.09-0.82,0.16-1.76,0-2.43c0.01-0.45,0.03-0.9,0.04-1.35c-0.06-0.68-0.13-1.35-0.18-2.03c-0.17-0.92,0.15-2.43,0.22-3.19
	c0.03-0.31,0.08-1.01,0.05-1.26c-0.04-0.29-0.24-0.73-0.13-1.17c0.09-0.41,0.24-0.94,0.13-1.48c-0.13-0.69-0.37-1.37-0.22-2.12
	c0.05-0.27,0.17-1.1,0.14-1.31c-0.06-0.41-0.39-0.94-0.28-1.44c0.19-0.77-0.09-1.57,0.14-2.38c0.01-0.06,0.13-0.07,0.09-0.23
	c-0.4-1.51-0.14-3.1,0.18-4.58c-0.01-0.42-0.03-0.84-0.04-1.26c0.15-0.84,0.07-1.38,0.22-2.21c0.16-0.89-0.23-1.71-0.18-2.52
	c0.1-1.83,0.21-4.93-0.14-6.7c-0.14-0.68,0.06-1.5,0.09-2.07c-0.07-0.26-0.16-0.51-0.23-0.77c0.05-0.39,0.09-0.78,0.14-1.17
	c-0.06-0.27-0.18-0.72-0.18-0.99c-0.01-0.5,0.31-1.49,0.23-2.07c-0.14-0.93-0.05-1.68,0-2.61c-0.09-0.78-0.18-1.56-0.28-2.34
	c-0.12-0.89,0.06-2.02,0.19-2.83c-0.03-0.38-0.07-0.75-0.09-1.13c0.05-0.68,0.1-1.38,0.17-2.29c1.19-0.91,2.54-0.19,4.14-0.55
	c0.52-0.11,1.07,0.09,1.76-0.04C40.59-32.94,41.96-32.87,43.12-32.78z"/>
</svg>
