<?xml version="1.0" encoding="utf-8"?>
<!-- Generator: Adobe Illustrator 23.0.1, SVG Export Plug-In . SVG Version: 6.00 Build 0)  -->
<svg version="1.1" id="Layer_1" xmlns="http://www.w3.org/2000/svg" xmlns:xlink="http://www.w3.org/1999/xlink" x="0px" y="0px"
	 viewBox="0 0 156.7 90.41" style="enable-background:new 0 0 156.7 90.41;" xml:space="preserve">
<style type="text/css">
	.st0{fill-rule:evenodd;clip-rule:evenodd;fill:#333333;}
</style>
<path class="st0" d="M0.36,40.43c0.06,0,0.12,0,0.18,0c0-0.04,0-0.09,0-0.14c-0.2-0.17-0.15-0.36-0.13-0.72
	c0.18-0.06,0.16-0.04,0.18-0.27c-0.04-0.02-0.09-0.03-0.13-0.05c0.02,0,0.03,0,0.04,0c0.05-0.03,0.09-0.06,0.14-0.09
	C0.54,39.03,0.48,39,0.47,38.73c0.12-0.07,0.12-0.05,0.18-0.18c-0.28-0.29-0.03-1.46,0.02-1.8c-0.01,0-0.03,0-0.04,0
	c-0.06,0.13-0.01,0.07-0.14,0.13c-0.03-0.12-0.06-0.24-0.09-0.36c0.12-0.05,0.1-0.06,0.18-0.13c-0.19-0.36-0.3-0.92-0.12-1.31
	c-0.17-0.07-0.14-0.02-0.18-0.23c0.15-0.18,0.11-0.41,0.1-0.67c-0.06,0-0.12,0-0.18,0c0.16-0.12,0.21-0.11,0.23-0.4
	c-0.03,0-0.06,0-0.09,0c-0.05,0.03-0.09,0.06-0.14,0.09c0-0.16,0-0.33,0.01-0.5c-0.02-0.15,0.06-0.2,0.14-0.36
	C0.23,33,0.27,33.06,0.18,32.92c0.09-0.13,0.06-0.12,0.05-0.31c0.05-0.01,0.09-0.03,0.14-0.04c-0.18-0.34-0.18-0.8,0.01-1.22
	c-0.02,0-0.03,0-0.04,0c-0.1-0.1-0.12-0.06-0.18-0.23c0.02-0.15,0.03-0.3,0.05-0.45c0.04,0,0.09,0,0.13,0c0.01,0,0.03,0,0.04,0
	c0.02,0,0.03,0,0.04,0c-0.01-0.08-0.03-0.15-0.04-0.23c-0.09-0.09-0.08-0.03-0.13-0.18c0.12-0.42,0.25-0.92,0.37-1.3
	c0.03-0.1-0.09-0.63-0.04-0.85c0.02-0.1-0.08-0.16-0.09-0.32c-0.03-0.77-0.26-1.68-0.02-2.12c-0.14-0.08-0.11-0.03-0.13-0.23
	c0.14-0.07,0.12-0.09,0.18-0.22c-0.02,0-0.03,0-0.04,0c0,0.01,0,0.03,0,0.04c-0.03,0-0.06,0-0.09,0c-0.02-0.06-0.03-0.12-0.04-0.18
	c0.47-0.17,0.01-0.92,0.06-1.17c0.06-0.08,0.12-0.15,0.18-0.22c-0.02-0.06-0.1-0.05-0.13-0.09c-0.05-0.06-0.04-0.09-0.04-0.09
	c0.08-0.07,0.05,0.05,0.14-0.09c-0.18-0.28-0.28-1.15-0.12-1.49c0.07-0.06,0.08-0.05,0.14-0.13c-0.14-0.21-0.02-0.74,0.06-1.03
	c-0.05,0.01-0.09,0.03-0.14,0.04c-0.03-0.12-0.06-0.24-0.09-0.36c0.09-0.06,0.19-0.12,0.27-0.18c-0.05-0.3-0.19-1.09-0.08-1.31
	c0.09-0.17,0.2-0.15,0.23-0.49c-0.04-0.03-0.09-0.06-0.13-0.09c0.05-0.09,0.09-0.18,0.14-0.27c-0.34-0.17-0.22-0.85-0.08-1.13
	c-0.04-0.02-0.09-0.03-0.13-0.05c0.22-0.23-0.11-0.26,0.05-0.58c0.16-0.38,0.06-0.46,0.01-0.95c0.08-0.01,0.15-0.03,0.23-0.04
	c-0.02-0.31-0.11-0.27-0.17-0.5c0.05-0.31,0.1-0.63,0.15-0.94c-0.19-0.44-0.1-1.17-0.25-1.76c0.02-0.49,0.04-0.99,0.06-1.48
	c-0.03-0.15-0.18-0.4-0.13-0.63C0.63,9.88,0.69,9.7,0.75,9.52C0.69,9.49,0.63,9.46,0.57,9.43C0.51,9.31,0.51,8.89,0.49,8.71
	c0.06-0.01,0.12-0.03,0.18-0.04c0-0.03,0-0.06,0-0.09C0.49,8.47,0.48,8.39,0.5,8.08c0.15-0.2-0.01-0.34-0.08-0.63
	c0.01,0,0.03,0,0.04,0C0.5,7.48,0.51,7.59,0.55,7.49C0.62,7.43,0.6,7.46,0.64,7.36c-0.02,0-0.03,0-0.04,0
	C0.54,7.34,0.48,7.33,0.42,7.31C0.39,6.93,0.41,7.06,0.47,6.68C0.4,6.62,0.43,6.65,0.38,6.55c0.09-0.06,0.13-0.11,0.14-0.13
	C0.46,6.38,0.4,6.35,0.34,6.32c-0.01-0.76-0.01-1.53-0.02-2.3C0.4,3.73,0.66,3.4,0.69,3C0.55,2.91,0.55,2.93,0.56,2.81
	c0.09-0.2,0.07-0.52,0.14-0.76c0.04,0,0.09,0,0.13,0c0.02-0.04,0.03-0.09,0.05-0.13C0.82,1.87,0.76,1.83,0.7,1.78
	c0.19-0.39-0.08-1.01,0.11-1.44c0.08-0.19,0.17-0.28,0.41-0.31c0.91-0.42,2.25,0.03,3.06-0.1C5.6-0.29,7.3-0.28,8.51-0.02
	c0.55,0.12,1.49-0.11,2.07-0.2c0.82-0.13,2.16,0.05,3.2-0.1c0.84-0.04,1.68-0.07,2.52-0.11c0.42,0.07,0.84,0.13,1.26,0.19
	c1.05-0.13,2.41-0.15,3.6,0.04c0.74-0.05,1.47-0.1,2.21-0.16C24.38-0.18,25.4,0,26.42,0.18c0.39-0.01,0.78-0.02,1.17-0.03
	c1.32,0.19,3.3,0.29,4.5,0.1c0.12-0.02,0.31,0.14,0.54,0.1c1.58-0.29,3.23-0.18,4.64-0.44c0.85,0.04,1.71,0.08,2.56,0.12
	c1.07-0.06,3.87-0.15,4.81,0.1c0.08-0.03,0.15-0.06,0.23-0.09c0.29-0.03,1.84-0.04,2.07,0.02c0.21,0.06,0.7,0.24,0.94,0.24
	c0.49-0.01,0.71,0.15,1.17,0.19c0.07-0.04,0.15-0.09,0.23-0.13c0.13-0.03,0.16,0.08,0.22,0.09c0.39,0.09,1,0,1.31,0.06
	c0.42,0.07,1.08-0.32,1.53-0.25c0.78,0.12,2.11,0.24,2.74,0.35c0.69,0.12,1.41,0.01,1.8-0.07c0.6-0.12,2.35,0.08,2.79,0.21
	c0.6-0.16,1.21-0.3,1.67-0.34c0.15,0.03,0.3,0.06,0.45,0.09c0.21-0.07,0.42-0.14,0.63-0.22c0.33-0.05,1.57,0.3,2.16,0.16
	c0.33-0.08,1.23-0.36,1.76-0.29c1.08,0.13,2.35,0.43,3.69,0.27c1.16-0.15,2.45,0.02,3.6-0.18c0.81,0.02,1.62,0.05,2.43,0.07
	c2-0.39,4.73-0.16,6.84,0.21c0.71,0.13,1.87,0.06,2.74,0.17c0.63,0.08,1.07-0.29,1.67-0.12c0.8,0.23,2.2,0.15,3.19,0.17
	c0.33-0.01,0.66-0.02,0.99-0.03c1.44,0.38,3.38-0.02,4.99,0.19c0.45,0.06,0.76-0.17,1.13-0.21c0.33,0.05,0.66,0.1,0.99,0.15
	c0.59-0.02,1.17-0.05,1.76-0.07c0.82,0.1,1.76,0.18,2.43,0.03c0.45,0.02,0.9,0.04,1.35,0.06c0.68-0.05,1.35-0.1,2.03-0.16
	c0.92-0.16,2.43,0.18,3.19,0.26c0.31,0.03,1.01,0.09,1.26,0.06c0.29-0.04,0.73-0.23,1.17-0.12c0.41,0.1,0.94,0.25,1.48,0.15
	c0.68-0.12,1.37-0.35,2.12-0.2c0.27,0.05,1.1,0.18,1.3,0.15c0.42-0.06,0.95-0.38,1.44-0.25c0.77,0.2,1.57-0.07,2.38,0.16
	c0.06,0.02,0.07,0.13,0.22,0.09c1.51-0.37,3.11-0.09,4.59,0.23c0.42-0.01,0.84-0.02,1.26-0.03c0.84,0.16,1.38,0.09,2.2,0.25
	c0.9,0.18,1.71-0.21,2.52-0.15c1.83,0.12,4.94,0.27,6.71-0.06c0.68-0.13,1.5,0.08,2.07,0.11c0.26-0.07,0.51-0.14,0.77-0.22
	c0.39,0.05,0.78,0.1,1.17,0.15c0.27-0.06,0.73-0.17,0.99-0.17c0.5,0,1.49,0.33,2.07,0.25c0.93-0.13,1.68-0.03,2.61,0.03
	c0.78-0.08,1.56-0.16,2.34-0.24c0.89-0.11,2.02,0.07,2.83,0.21c0.38-0.03,0.75-0.05,1.13-0.08c0.68,0.06,1.38,0.12,2.29,0.21
	c0.9,1.2,0.16,2.54,0.49,4.15c0.11,0.52-0.1,1.07,0.03,1.76c0.2,1.11,0.12,2.48,0,3.65c-0.04,1.09-0.08,2.19-0.13,3.28
	c0.05,0.28,0.1,0.46,0.08,0.81c-0.09,1.33-0.17,2.47-0.04,3.87c0.04,0.49-0.03,1.18-0.16,1.98c0.03,0.42,0.05,0.84,0.08,1.26
	c-0.04,0.85-0.08,1.71-0.12,2.56c0.03,0.42,0.05,0.84,0.08,1.26c-0.06,0.39-0.13,0.78-0.19,1.17c0.04,0.72,0.07,1.44,0.11,2.16
	c0.1,0.71-0.03,1.73-0.12,2.43c0.03,0.21,0.05,0.42,0.08,0.63c-0.01,0.45-0.01,0.9-0.02,1.35c0.06,0.25,0.15,0.87,0.21,1.4
	c-0.03,0.36-0.07,0.72-0.1,1.08c0.03,0.42,0.05,0.84,0.08,1.26c0.07,0.66-0.19,1.82-0.3,2.34c0,0.9,0.01,1.8,0.01,2.7
	c-0.11,0.82-0.05,2.22,0.1,2.93c-0.02,0.23-0.03,0.45-0.05,0.68c0.11,0.9,0.04,2.22,0.06,3.06c0.01,0.28-0.18,0.55-0.23,0.76
	c-0.07,0.3-0.14,1.07-0.2,1.44c-0.13,0.8-0.05,2.08,0.15,2.97c-0.02,0.28-0.04,0.57-0.05,0.85c-0.12,0.81-0.04,1.89,0.02,2.39
	c0.04,0.37-0.14,0.99-0.19,1.26c-0.23,1.11-0.17,3.13,0.09,4.14c0,0.31-0.01,0.63-0.01,0.94c0,0.68,0.06,1.32-0.07,2.11
	c0.02,0.54,0.05,1.08,0.07,1.62c-0.12,0.67,0.01,1.56-0.03,2.39c-0.03,0.77-0.13,1.49-0.07,2.02c-0.08,0.58-0.16,1.17-0.24,1.75
	c-0.19,0.93,0,2.11-0.13,3.15c0.06,0.3,0.11,0.6,0.17,0.9c0.12,0.81-0.14,1.82,0.01,2.7c0.04,0.21-0.07,0.34-0.09,0.45
	c-0.01,0.78-0.02,1.56-0.03,2.34c0.1,0.62,0.35,1.65,0.25,2.25c0.01,0.36,0.02,0.72,0.03,1.08c0.05,1.27-0.42,3.77-1.39,3.99
	c-0.13-0.23-0.13-0.13-0.31-0.05c0-0.06,0-0.12,0-0.18c-0.12,0.07-0.24,0.15-0.36,0.22c0-0.03,0-0.06,0-0.09
	c0.02-0.04,0.03-0.09,0.05-0.13c-0.02,0-0.03,0-0.04,0c-0.24,0.26-1.88,0.39-2.61,0.24c-1.11-0.22-2.48,0.21-4.01,0.05
	c-0.14-0.02-0.46,0.08-0.59,0.08c-0.39-0.05-0.78-0.1-1.17-0.15c-0.42,0.03-0.84,0.05-1.26,0.08c-1.62,0.02-2.96-0.06-4.23,0.22
	c-0.91,0.2-1.75-0.36-2.65-0.25c-0.48,0.06-1-0.04-1.39-0.06c-0.87-0.05-1.99,0.1-2.97-0.12c-1.02-0.24-2.12,0.03-3.1-0.17
	c-0.06,0.17-0.08,0.12-0.18,0.22c-0.61-0.22-1.18,0.15-2.11-0.11c-0.91-0.25-3.58-0.36-4.41-0.18c-0.37,0.08-0.67-0.2-0.81-0.19
	c-0.01,0-0.28,0.16-0.36,0.18c-0.84,0.19-1.52,0.07-2.16-0.07c-0.02,0.13,0.02,0.06-0.18,0.09c-0.42,0.18-1.09-0.17-1.44-0.11
	c-0.94,0.17-1.87,0.01-2.7,0.06c-1.09,0.06-2.76,0.1-3.97,0.41c-0.25-0.02-0.51-0.04-0.76-0.05c-0.38-0.07-0.69,0.1-0.99,0.17
	c-0.59,0.14-1.91-0.19-2.43-0.3c-0.24,0.03-0.48,0.05-0.72,0.08c-0.51-0.05-1.17-0.16-1.53-0.33c-0.86,0.1-1.89-0.05-2.74-0.21
	c-0.81-0.15-2.17,0.22-2.97,0.37c-0.25,0-0.51-0.01-0.76-0.01c-1.54,0.27-2.88-0.04-4.59-0.23c-0.26,0.03-0.51,0.05-0.77,0.08
	c-0.61-0.05-1.23-0.1-1.84-0.16c-0.2-0.02-0.38,0.1-0.59,0.04c0,0.02,0,0.03,0,0.04c0.01,0.02,0.03,0.03,0.04,0.05
	c-0.72,0.15-1.29-0.13-1.93-0.02c-0.33,0.05-0.84,0.17-1.26,0.08c-0.37-0.08-0.65-0.31-1.08-0.37c-0.57,0.05-1.14,0.11-1.71,0.16
	c-0.54-0.02-1.08-0.04-1.62-0.06c-0.6,0.07-1.85,0.12-2.43-0.07c-0.91,0.28-3.75,0.23-4.64,0.04c-0.49-0.11-2.22-0.03-2.66,0.06
	c-0.61,0.12-2.05-0.16-2.7-0.3c-0.82,0.01-1.65,0.01-2.47,0.02c-0.44-0.08-1.37,0.08-1.8-0.02c-0.12-0.03-0.34-0.15-0.58-0.1
	c-0.36,0.08-0.97,0.2-1.44,0.12c-0.31-0.05-0.71,0.06-1.08,0.03c-1.69-0.14-3.46-0.1-4.86,0.17c-0.52,0.1-0.97-0.26-1.35-0.24
	c-1.02,0.06-2.18-0.04-3.6-0.13c-1.46-0.1-2.92-0.18-4.37,0.09c-0.58,0.11-1.37-0.05-1.98,0.07c-0.24-0.02-0.48-0.04-0.72-0.05
	c-1.01,0.16-1.76,0.01-2.93,0.19c-1.21,0.18-2.12-0.66-3.55-0.35c-1.34,0.29-3.06-0.18-4.5-0.01c-0.51,0.06-1.02-0.14-1.57-0.06
	c-0.83,0.12-2.54,0.13-3.42-0.13c-0.21,0.03-0.42,0.06-0.63,0.08c-0.45,0.02-0.91-0.19-1.26-0.28c-0.39-0.11-0.66,0.12-1.08,0.03
	c-1.53-0.32-3.44-0.21-4.86-0.01c-0.87,0.01-1.74,0.01-2.61,0.02c-0.07-0.05-0.15-0.09-0.22-0.14c-0.7-0.02-1.54,0.22-2.07,0.34
	c-0.37-0.02-0.75-0.04-1.12-0.06c-1.17,0.17-3.1,0.11-4.27-0.09c-0.54,0.07-1.08,0.14-1.62,0.21c-0.73,0.1-1.75-0.28-2.56-0.12
	c-0.63,0.13-1.76,0.37-2.39,0.24c-0.57-0.12-1.12,0.06-1.53-0.02c-0.64-0.11-1.56-0.19-2.2-0.29c-0.8-0.13-1.83-0.05-2.15-0.74
	c-0.22-0.41,0.02-0.7-0.03-1.22c-0.04-0.36-0.1-0.71-0.17-1.08c0.03-0.34,0.07-0.69,0.1-1.03c-0.11-1.44-0.04-3.62-0.21-5.31
	c0.05-0.18,0.09-0.36,0.14-0.54c0.12-0.49-0.01-2.3-0.1-2.7c0.05-0.16,0.09-0.33,0.14-0.49c0.15-0.69,0.07-1.49-0.02-2.07
	c0.12-0.09,0.14-0.09,0.18-0.27c-0.15-0.09-0.15-0.06-0.18-0.27c0.14-0.07,0.13-0.07,0.18-0.22c-0.17-0.07-0.09,0.01-0.13-0.18
	c0,0,0.12-1.97,0.11-2.07c-0.06-0.51-0.39-0.95-0.12-1.4c-0.17-0.07-0.14-0.09-0.13-0.32c0.14-0.14-0.07-0.33,0.01-0.76
	c0.09-0.53-0.08-1.67,0.11-2.2c-0.13-0.13-0.18-0.69-0.08-1.04c0.06-0.21,0-0.93,0.02-1.53c0.14-0.08,0.13-0.04,0.18-0.22
	C0,63.51-0.23,62.22-0.1,61.94c0.06-0.04,0.12-0.09,0.18-0.13c0,0-0.19-0.39-0.13-0.59c0.17-0.51,0.04-1.93,0.25-2.34
	c0.09-0.1,0.09-0.06,0.14-0.22c-0.29-0.22-0.21-1.28-0.12-1.76c0.07-0.34,0.37-1.58,0.29-1.8c-0.17-0.45-0.22-1.88-0.07-2.21
	c-0.14-0.05-0.06,0.01-0.13-0.09c0.1-0.06,0.03,0.01,0.09-0.09c-0.17-0.07-0.14-0.09-0.13-0.32c-0.24-0.45-0.09-0.93-0.12-1.31
	C0.1,50.41-0.14,49.72,0,49.03c0.12-0.6,0.2-0.94,0.11-1.39c0.06-0.03,0.12-0.06,0.18-0.09c-0.02-0.05-0.03-0.09-0.04-0.14
	c-0.04-0.05-0.09-0.09-0.13-0.14c0.12-0.3,0.09-0.46-0.03-0.9c0.11-0.45,0.31-0.86,0.42-1.21c-0.21-0.02-0.14,0.08-0.18-0.14
	C0.36,45.01,0.4,45,0.45,44.98c-0.11-0.14-0.06-1.08-0.03-1.53c0.03-0.04,0.06-0.09,0.09-0.13c-0.11-0.11-0.12-0.28-0.13-0.5
	c0.2-0.04,0.18-0.03,0.23-0.22c-0.03-0.05-0.06-0.09-0.09-0.14c-0.05,0.03-0.09,0.06-0.14,0.09c0-0.04,0-0.09,0-0.13
	c0-0.07,0-0.15,0-0.22c0.16-0.06,0.12-0.01,0.18-0.18C0.37,41.8,0.35,40.91,0.36,40.43z"/>
</svg>
